<svg width="18" height="12" viewBox="0 0 18 12" fill="none" xmlns="http://www.w3.org/2000/svg">
<path d="M0.799111 10.0433C0.793778 10.2857 0.864058 10.5238 1.00029 10.7244C1.13651 10.925 1.33196 11.0782 1.55927 11.1627C1.78659 11.2471 2.03453 11.2587 2.2687 11.1957C2.50287 11.1327 2.71151 10.9983 2.86577 10.8112L8.98165 3.6722L15.0954 10.8112C15.1905 10.9406 15.3113 11.049 15.4502 11.1296C15.5892 11.2102 15.7433 11.2612 15.9029 11.2794C16.0625 11.2977 16.2241 11.2828 16.3776 11.2357C16.5312 11.1886 16.6734 11.1103 16.7953 11.0057C16.9172 10.9011 17.0161 10.7724 17.086 10.6278C17.1559 10.4832 17.1951 10.3257 17.2013 10.1652C17.2075 10.0047 17.1806 9.84463 17.1221 9.69505C17.0635 9.54546 16.9748 9.40958 16.8613 9.2959L9.86803 1.12239C9.7585 0.994037 9.62254 0.890968 9.46931 0.820293C9.31609 0.749617 9.14931 0.713018 8.98057 0.713018C8.81183 0.713018 8.64505 0.749617 8.49183 0.820293C8.3386 0.890968 8.20251 0.994037 8.09298 1.12239L1.093 9.2959C0.909605 9.50237 0.805339 9.76721 0.798841 10.0433L0.799111 10.0433Z" fill="#5C459B"/>
</svg>
