<svg width="40" height="43" viewBox="0 0 40 43" fill="none" xmlns="http://www.w3.org/2000/svg">
<path d="M8.16458 24.394C7.52162 24.0946 6.81366 23.9233 6.06667 23.9233C3.11739 23.9233 0.75 26.5061 0.75 29.6404C0.75 32.7747 3.11739 35.3575 6.06667 35.3575C7.83493 35.3575 9.39669 34.4252 10.361 33.0062L14.7824 35.3945C14.7192 35.7432 14.6833 36.104 14.6833 36.4743C14.6833 39.6086 17.0507 42.1914 20 42.1914C22.9493 42.1914 25.3167 39.6086 25.3167 36.4743C25.3167 35.3623 25.0198 34.3225 24.5051 33.442L30.954 26.1663C31.8029 26.787 32.8266 27.1568 33.9333 27.1568C36.8826 27.1568 39.25 24.574 39.25 21.4397C39.25 18.3054 36.8826 15.7226 33.9333 15.7226C32.7839 15.7226 31.7239 16.12 30.8564 16.7855L24.3175 9.72977C24.9445 8.79127 25.3167 7.64494 25.3167 6.40511C25.3167 3.27085 22.9493 0.687988 20 0.687988C17.0507 0.687988 14.6833 3.27085 14.6833 6.40511C14.6833 6.76554 14.7171 7.11692 14.7775 7.45748L10.6919 9.06374C9.78142 7.33686 8.05717 6.15511 6.06667 6.15511C3.11739 6.15511 0.75 8.73798 0.75 11.8722C0.75 15.0065 3.11739 17.5894 6.06667 17.5894C6.74373 17.5894 7.39021 17.4508 7.98523 17.2014L10.1363 21.1077L8.16458 24.394ZM6.06667 33.4907C4.12661 33.4907 2.51667 31.7819 2.51667 29.6404C2.51667 27.4989 4.12661 25.7901 6.06667 25.7901C8.00673 25.7901 9.61667 27.4989 9.61667 29.6404C9.61667 31.7819 8.00673 33.4907 6.06667 33.4907ZM11.1407 31.3296C11.2957 30.7961 11.3833 30.2298 11.3833 29.6404C11.3833 27.9703 10.7124 26.4636 9.64299 25.4163L11.1373 22.9258L16.3284 32.3514C15.9639 32.7266 15.6489 33.1555 15.3953 33.6279L11.1407 31.3296ZM20 12.1222C21.1494 12.1222 22.2094 11.7248 23.0769 11.0593L29.6165 18.1158C29.2869 18.6095 29.0298 19.1609 28.8595 19.7533L25.3145 19.2272C25.2345 16.1666 22.8982 13.6724 20 13.6724C18.2318 13.6724 16.6693 14.6047 15.7055 16.0239L15.3831 15.8501L17.9027 11.6516C18.5452 11.951 19.2531 12.1222 20 12.1222ZM23.3346 32.0314C22.6407 31.428 21.8034 31.0075 20.8833 30.8409V25.0224C22.8817 24.6613 24.4904 23.1038 25.0744 21.076L28.6188 21.602C28.6507 22.8244 29.0419 23.952 29.6832 24.8685L23.3346 32.0314ZM20 15.5392C21.9401 15.5392 23.55 17.248 23.55 19.3895C23.55 21.5311 21.9401 23.2399 20 23.2399C18.0599 23.2399 16.45 21.5311 16.45 19.3895C16.45 17.248 18.0599 15.5392 20 15.5392ZM14.4326 17.4343L14.9259 17.7004C14.771 18.2339 14.6833 18.8002 14.6833 19.3895C14.6833 22.2049 16.5919 24.5668 19.1167 25.023V30.8415C18.6486 30.926 18.2017 31.076 17.784 31.2828L12.2032 21.1492L14.4326 17.4343ZM20 40.3246C18.0599 40.3246 16.45 38.6158 16.45 36.4743C16.45 34.3328 18.0599 32.624 20 32.624C21.9401 32.624 23.55 34.3328 23.55 36.4743C23.55 38.6158 21.9401 40.3246 20 40.3246ZM33.9333 17.5894C35.8734 17.5894 37.4833 19.2982 37.4833 21.4397C37.4833 23.5812 35.8734 25.2901 33.9333 25.2901C31.9933 25.2901 30.3833 23.5812 30.3833 21.4397C30.3833 19.2982 31.9933 17.5894 33.9333 17.5894ZM20 2.55477C21.9401 2.55477 23.55 4.2636 23.55 6.40511C23.55 8.54663 21.9401 10.2555 20 10.2555C18.0599 10.2555 16.45 8.54663 16.45 6.40511C16.45 4.2636 18.0599 2.55477 20 2.55477ZM15.3747 9.21363C15.6536 9.74308 16.0076 10.2208 16.4237 10.6291L13.8025 14.9975L11.1408 13.5614C11.2957 13.0279 11.3833 12.4616 11.3833 11.8722C11.3833 11.5118 11.3496 11.1604 11.2892 10.8199L15.3747 9.21363ZM2.51667 11.8722C2.51667 9.73072 4.12661 8.02189 6.06667 8.02189C8.00673 8.02189 9.61667 9.73072 9.61667 11.8722C9.61667 14.0138 8.00673 15.7226 6.06667 15.7226C4.12661 15.7226 2.51667 14.0138 2.51667 11.8722ZM11.2022 19.331L9.4955 16.2325C9.81875 15.9388 10.1101 15.6057 10.3609 15.2378L12.8521 16.5816L11.2022 19.331Z" fill="#5C459B" stroke="#5C459B" stroke-width="0.5"/>
</svg>
