<svg width="60" height="60" viewBox="0 0 60 60" fill="none" xmlns="http://www.w3.org/2000/svg">
<path d="M58.3736 28.3101C59.4011 27.2776 59.9986 25.8777 59.9986 24.3752C59.9986 22.2077 58.7587 20.3027 56.9137 19.3728C57.2962 18.6078 57.4987 17.7603 57.4987 16.8753C57.4987 14.7079 56.2562 12.8005 54.4112 11.8729C54.9812 10.733 55.1487 9.4205 54.8612 8.11799C54.3012 5.58551 51.9188 3.75063 49.1964 3.75063H26.2494C24.5119 3.75063 21.712 4.31312 19.6321 5.38314C18.7621 2.97569 16.4522 1.25073 13.7498 1.25073H6.24993C2.80247 1.25073 0 4.05309 0 7.50055V27.5001C0 30.9476 2.80247 33.7499 6.24981 33.7499H18.7496C19.4395 33.7499 19.9996 33.1899 19.9996 32.4999V32.0224L20.2971 32.1724L27.4994 47.772V56.2493C27.4994 56.6293 27.6719 56.9893 27.9668 57.2267C28.0469 57.2867 29.9043 58.7492 32.4992 58.7492C35.3917 58.7492 39.999 54.1718 39.999 48.7495C39.999 45.3295 38.7741 41.0721 38.0091 38.7497H53.4512C56.8162 38.7497 59.6786 36.2598 59.9736 33.0823C60.136 31.2999 59.5411 29.5875 58.3736 28.3101ZM55.7012 29.3175C56.9287 30.075 57.6136 31.43 57.4811 32.855C57.3062 34.7575 55.5362 36.25 53.4512 36.25H36.2491C35.8391 36.25 35.4541 36.4524 35.2192 36.7899C34.9867 37.1299 34.9342 37.5624 35.0817 37.9449C35.1042 38.0074 37.4991 44.3498 37.4991 48.7497C37.4991 52.8446 33.8692 56.2495 32.4992 56.2495C31.4217 56.2495 30.5168 55.8571 29.9993 55.5721V47.4998C29.9993 47.3198 29.9593 47.1398 29.8818 46.9748L22.3819 30.7252C22.2644 30.4702 22.0619 30.2602 21.8069 30.1327L19.307 28.8827C18.9195 28.6877 18.4571 28.7126 18.092 28.9352C17.7245 29.1652 17.4995 29.5676 17.4995 30.0001V31.2501H6.24981C4.18232 31.2501 2.4999 29.5677 2.4999 27.5002V7.50055C2.4999 5.43306 4.18232 3.75063 6.24981 3.75063H13.7496C15.8171 3.75063 17.4995 5.43306 17.4995 7.50055C17.4995 8.0055 17.8046 8.46299 18.272 8.65552C18.737 8.84548 19.2745 8.74048 19.6345 8.38553C20.8145 7.20301 24.2194 6.25054 26.2494 6.25054H49.1964C50.7563 6.25054 52.1114 7.26055 52.4188 8.66044C52.6663 9.77792 52.3363 10.8629 51.5138 11.6403C51.1589 11.9728 51.0288 12.4803 51.1838 12.9453C51.3389 13.4078 51.7463 13.7378 52.2288 13.7928C53.8062 13.9728 54.9987 15.2978 54.9987 16.8752C54.9987 17.7352 54.6462 18.5402 54.0137 19.1402C53.6588 19.4726 53.5287 19.9801 53.6837 20.4451C53.8388 20.9077 54.2462 21.2376 54.7287 21.2926C56.3061 21.4726 57.4986 22.7976 57.4986 24.375C57.4986 25.54 56.8436 26.6 55.7862 27.14C55.3862 27.3475 55.1286 27.7525 55.1087 28.205C55.0912 28.6551 55.3187 29.08 55.7012 29.3175Z" fill="#888888"/>
<path d="M18.75 6.25049C18.06 6.25049 17.5 6.81051 17.5 7.5005V30C17.5 30.69 18.06 31.25 18.75 31.25C19.44 31.25 20 30.69 20 30V7.5005C20 6.81051 19.44 6.25049 18.75 6.25049Z" fill="#888888"/>
</svg>
