<svg width="19" height="20" viewBox="0 0 19 20" fill="none" xmlns="http://www.w3.org/2000/svg">
<g clip-path="url(#clip0_1217_49)">
<path d="M17.2187 2.5H1.78126C0.799014 2.5 0 3.34107 0 4.37501V15.625C0 16.659 0.799014 17.5 1.78126 17.5H17.2187C18.201 17.5 19 16.659 19 15.625V4.37501C19 3.34107 18.201 2.5 17.2187 2.5ZM17.2187 3.74999C17.2994 3.74999 17.3762 3.76761 17.4463 3.79838L9.5 11.048L1.55365 3.79838C1.62381 3.76765 1.70055 3.74999 1.78122 3.74999H17.2187ZM17.2187 16.25H1.78126C1.45366 16.25 1.1875 15.9698 1.1875 15.625V5.11901L9.11092 12.3474C9.22285 12.4493 9.36142 12.5 9.5 12.5C9.63858 12.5 9.77715 12.4494 9.88908 12.3474L17.8125 5.11901V15.625C17.8125 15.9698 17.5463 16.25 17.2187 16.25Z" fill="#5C459B"/>
</g>
<defs>
<clipPath id="clip0_1217_49">
<rect width="19" height="20" fill="white"/>
</clipPath>
</defs>
</svg>
