<svg width="60" height="60" viewBox="0 0 60 60" fill="none" xmlns="http://www.w3.org/2000/svg">
<path d="M60 35.6274C60 34.125 59.4025 32.7249 58.375 31.6899C59.5425 30.4125 60.135 28.6974 59.9725 26.9175C59.6824 23.7399 56.8174 21.2499 53.455 21.2499H38.015C38.775 18.9274 40.0001 14.67 40.0001 11.25C40.0001 5.82746 35.3926 1.25 32.5001 1.25C29.9026 1.25 28.0451 2.71004 27.9676 2.7725C27.6701 3.0125 27.5002 3.37004 27.5002 3.74996V12.225L20.3002 27.8274L20.0002 27.9774V27.4999C20.0002 26.8099 19.4401 26.2498 18.7501 26.2498H6.24996C2.805 26.25 0 29.055 0 32.4999V52.5C0 55.9449 2.805 58.7499 6.24996 58.7499H13.75C16.455 58.7499 18.7624 57.0249 19.635 54.6199C21.715 55.6899 24.515 56.2524 26.2525 56.2524H49.2C51.9225 56.2524 54.3025 54.4149 54.8625 51.885C55.15 50.5824 54.9825 49.2699 54.4125 48.1299C56.2575 47.1999 57.5 45.2974 57.5 43.1274C57.5 42.2424 57.2975 41.3949 56.9126 40.6275C58.7575 39.6975 60 37.7949 60 35.6274ZM17.5 52.5C17.5 54.5675 15.8149 56.25 13.75 56.25H6.24996C4.17996 56.25 2.49996 54.5675 2.49996 52.5V32.4999C2.49996 30.4324 4.18242 28.7499 6.24996 28.7499V28.7625H17.4949V30.0125C17.4949 30.02 17.5 30.025 17.5 30.0325V52.5ZM54.725 38.715C54.2426 38.7699 53.835 39.0975 53.6825 39.56C53.5301 40.02 53.655 40.53 54.0101 40.8625C54.6476 41.465 54.9976 42.2701 54.9976 43.13C54.9976 44.705 53.8076 46.0325 52.2277 46.2125C51.7452 46.2675 51.3376 46.595 51.1852 47.0575C51.0327 47.5175 51.1576 48.0275 51.5127 48.3601C52.3377 49.1376 52.6677 50.2276 52.4202 51.3451C52.1127 52.7376 50.7577 53.7501 49.1977 53.7501H26.25C24.3925 53.7501 21.4025 52.9476 20 51.9051V30.78L21.8025 29.88C22.055 29.7525 22.2575 29.5425 22.3775 29.285L29.8775 13.035C29.9525 12.8724 29.9925 12.6924 29.9925 12.5124V4.44242C30.5125 4.15496 31.415 3.76238 32.4925 3.76238C33.8625 3.76238 37.4925 7.16984 37.4925 11.2624C37.4925 15.6598 35.1 22.0048 35.075 22.0674C34.9301 22.4499 34.98 22.8825 35.2151 23.22C35.45 23.5575 35.8325 23.76 36.245 23.76H53.4476C55.5326 23.76 57.3026 25.25 57.4775 27.155C57.6101 28.58 56.93 29.935 55.7 30.6925C55.3151 30.9275 55.0901 31.355 55.1075 31.805C55.1225 32.255 55.3826 32.66 55.785 32.8675C56.84 33.4075 57.495 34.4675 57.495 35.6326C57.4925 37.2075 56.3025 38.535 54.725 38.715Z" fill="#F5CF51"/>
</svg>
