<svg width="30" height="30" viewBox="0 0 30 30" fill="none" xmlns="http://www.w3.org/2000/svg">
<g clip-path="url(#clip0_1262_48)">
<path d="M29.3366 7.41127L29.3741 7.65627C29.0116 6.37002 28.0329 5.37752 26.7891 5.01627L26.7629 5.01002C24.4241 4.37502 15.0129 4.37502 15.0129 4.37502C15.0129 4.37502 5.62537 4.36252 3.26287 5.01002C1.99537 5.37752 1.01537 6.37002 0.659118 7.63002L0.652868 7.65627C-0.220882 12.22 -0.227132 17.7038 0.691618 22.59L0.652868 22.3425C1.01537 23.6288 1.99412 24.6213 3.23787 24.9825L3.26412 24.9888C5.60037 25.625 15.0141 25.625 15.0141 25.625C15.0141 25.625 24.4004 25.625 26.7641 24.9888C28.0329 24.6213 29.0129 23.6288 29.3691 22.3688L29.3754 22.3425C29.7729 20.22 30.0004 17.7775 30.0004 15.2825C30.0004 15.1913 30.0004 15.0988 29.9991 15.0063C30.0004 14.9213 30.0004 14.82 30.0004 14.7188C30.0004 12.2225 29.7729 9.78002 29.3366 7.41127ZM12.0104 19.5638V10.4475L19.8429 15.0125L12.0104 19.5638Z" fill="#E6E6E6" fill-opacity="0.5"/>
</g>
<defs>
<clipPath id="clip0_1262_48">
<rect width="30" height="30" fill="white"/>
</clipPath>
</defs>
</svg>
