<svg width="661" height="442" viewBox="0 0 661 442" fill="none" xmlns="http://www.w3.org/2000/svg">
<path d="M655.322 335.206H585.88C590.952 314.502 593.642 292.864 593.642 270.597C593.642 226.338 583.015 184.562 564.175 147.678H613.421C616.253 147.678 618.549 145.382 618.549 142.55C618.549 139.718 616.253 137.423 613.421 137.423H558.651C512.173 55.3728 424.077 0 323.046 0C255.847 0 194.372 24.4993 147.056 65.0487H63.7301C60.8982 65.0487 58.6024 67.3444 58.6024 70.1764C58.6024 73.0084 60.8982 75.3041 63.7301 75.3041H135.746C129.996 80.8209 124.489 86.5898 119.242 92.5918H5.12771C2.29575 92.5918 0 94.8876 0 97.7195C0 100.551 2.29575 102.847 5.12771 102.847H110.711C74.2308 148.96 52.4492 207.234 52.4492 270.597C52.4492 306.056 59.2725 339.92 71.6737 370.953H58.1629C55.3309 370.953 53.0352 373.249 53.0352 376.081C53.0352 378.913 55.3309 381.209 58.1629 381.209H76.0202C77.8855 385.368 79.8525 389.471 81.9186 393.515H21.2434C18.4114 393.515 16.1157 395.811 16.1157 398.643C16.1157 401.475 18.4114 403.771 21.2434 403.771H87.4377C93.7621 414.935 100.856 425.605 108.649 435.709H537.443C552.01 416.824 564.133 395.96 573.348 373.59H623.676C626.508 373.59 628.804 371.295 628.804 368.463C628.804 365.631 626.508 363.335 623.676 363.335H577.329C579.469 357.469 581.412 351.509 583.15 345.461H655.322C658.154 345.461 660.45 343.166 660.45 340.334C660.449 337.502 658.154 335.206 655.322 335.206Z" fill="#20202A"/>
<path d="M436.785 435.694H404.004C404.004 433.327 405.923 431.409 408.289 431.409H432.5C434.867 431.409 436.785 433.327 436.785 435.694Z" fill="#5C459B"/>
<path d="M429.016 431.408H411.766L417.372 271.617L421.14 274.121L429.016 431.408Z" fill="#5C459B"/>
<path d="M434.34 435.696H401.559C401.559 433.33 403.477 431.411 405.844 431.411H430.054C432.421 431.411 434.34 433.33 434.34 435.696Z" fill="#5C459B"/>
<path d="M417.949 273.035L500.435 320.658L499.533 315.97C499.356 315.045 498.847 314.217 498.102 313.641L444.213 271.926C443.227 271.162 441.933 270.921 440.737 271.278L429.926 274.509C428.906 274.814 427.806 274.685 426.884 274.153L419.699 270.004L417.949 273.035Z" fill="#5C459B"/>
<path d="M416.2 270.004L333.715 317.627L338.218 319.189C339.112 319.499 340.089 319.472 340.965 319.113L404.018 293.308C405.179 292.833 406.04 291.828 406.33 290.607L408.933 279.649C409.18 278.607 409.846 277.714 410.773 277.179L417.95 273.035L416.2 270.004Z" fill="#5C459B"/>
<path d="M419.697 270.005V174.758L416.091 177.88C415.377 178.498 414.913 179.356 414.786 180.291L405.606 247.808C405.437 249.048 405.877 250.292 406.786 251.152L414.982 258.892C415.758 259.625 416.198 260.645 416.198 261.713V270.005H419.697Z" fill="#5C459B"/>
<path d="M425.864 431.414H410.031L415.638 271.622H420.257L425.864 431.414Z" fill="#5C459B"/>
<path d="M421.922 272.613C422.436 270.434 421.087 268.25 418.907 267.735C416.728 267.221 414.544 268.57 414.029 270.75C413.515 272.929 414.864 275.113 417.044 275.628C419.223 276.142 421.407 274.793 421.922 272.613Z" fill="#5C459B"/>
<path d="M417.678 275.075C419.72 275.075 421.376 273.419 421.376 271.377C421.376 269.335 419.72 267.68 417.678 267.68C415.636 267.68 413.98 269.335 413.98 271.377C413.98 273.419 415.636 275.075 417.678 275.075Z" fill="#5C459B"/>
<path d="M335.181 318.128L413.981 271.378L413.91 271.323L333.719 317.621L335.181 318.128Z" fill="#5C459B"/>
<path d="M425.87 430.37H410.074V431.409H425.87V430.37Z" fill="#5C459B"/>
<path d="M418.531 175.768L419.616 268.033L419.698 267.999V174.753L418.531 175.768Z" fill="#5C459B"/>
<path d="M500.145 319.133L420.258 274.267L420.246 274.355L500.437 320.654L500.145 319.133Z" fill="#5C459B"/>
<path d="M544.478 435.694H491.996C491.996 431.905 495.068 428.833 498.857 428.833H537.617C541.407 428.833 544.478 431.905 544.478 435.694Z" fill="#412F72"/>
<path d="M532.047 428.832H504.43L513.406 173.01L519.437 177.019L532.047 428.832Z" fill="#412F72"/>
<path d="M540.576 435.694H488.094C488.094 431.905 491.165 428.833 494.955 428.833H533.715C537.504 428.833 540.576 431.905 540.576 435.694Z" fill="#5C459B"/>
<path d="M514.344 175.272L646.401 251.515L644.792 243.148C644.615 242.223 644.105 241.394 643.36 240.817L555.449 172.767C554.461 172.002 553.166 171.761 551.969 172.119L532.56 177.918C531.539 178.223 530.437 178.094 529.515 177.562L517.145 170.42L514.344 175.272Z" fill="#5C459B"/>
<path d="M511.541 170.42L379.484 246.663L387.533 249.453C388.424 249.762 389.398 249.735 390.272 249.378L495 206.517L500.528 183.249L514.343 175.273L511.541 170.42Z" fill="#5C459B"/>
<path d="M517.14 170.42V17.9336L510.701 23.5079C509.987 24.1261 509.522 24.9835 509.395 25.9193L494.418 136.07C494.25 137.31 494.689 138.556 495.599 139.415L510.321 153.319C511.097 154.052 511.537 155.073 511.537 156.14V170.42H517.14V170.42Z" fill="#5C459B"/>
<path d="M527.015 428.833H501.668L510.644 173.01H518.039L527.015 428.833Z" fill="#5C459B"/>
<path d="M520.362 175.48C521.734 172.168 520.161 168.37 516.849 166.998C513.536 165.626 509.739 167.199 508.367 170.511C506.995 173.824 508.568 177.621 511.88 178.993C515.192 180.365 518.99 178.792 520.362 175.48Z" fill="#412F72"/>
<path d="M519.383 174.878C520.634 171.857 519.2 168.394 516.179 167.143C513.159 165.892 509.696 167.327 508.445 170.347C507.194 173.367 508.628 176.83 511.649 178.081C514.669 179.332 518.132 177.898 519.383 174.878Z" fill="#5C459B"/>
<path d="M381.818 247.473L507.974 172.627L507.86 172.539L379.477 246.661L381.818 247.473Z" fill="#412F72"/>
<path d="M527.008 427.171H501.719V428.833H527.008V427.171Z" fill="#412F72"/>
<path d="M515.262 19.5576L516.998 167.273L517.13 167.218V17.9331L515.262 19.5576Z" fill="#412F72"/>
<path d="M645.924 249.082L518.027 177.251L518.008 177.393L646.392 251.515L645.924 249.082Z" fill="#412F72"/>
<path d="M124.134 311.831C107.236 311.831 93.4102 298.005 93.4102 281.107V210.383C93.4102 193.485 107.236 179.659 124.134 179.659C141.033 179.659 154.858 193.485 154.858 210.383V281.106C154.858 298.005 141.033 311.831 124.134 311.831Z" fill="#5C459B"/>
<path d="M125.813 435.846H122.461V228.802C122.461 227.876 123.211 227.125 124.137 227.125C125.063 227.125 125.813 227.876 125.813 228.802V435.846H125.813Z" fill="#F5CF51"/>
<path d="M125.812 256.862L116.491 240.718C116.028 239.917 115.003 239.642 114.202 240.105C113.4 240.568 113.125 241.593 113.588 242.394L122.909 258.538L125.812 256.862Z" fill="#F5CF51"/>
<path d="M125.364 276.171L134.685 260.027C135.148 259.225 134.873 258.2 134.071 257.738C133.27 257.275 132.244 257.549 131.782 258.351L122.461 274.495L125.364 276.171Z" fill="#F5CF51"/>
<path d="M202.593 278.18C181.135 278.18 163.578 260.623 163.578 239.164V149.356C163.578 127.898 181.135 110.341 202.593 110.341C224.052 110.341 241.608 127.898 241.608 149.356V239.164C241.608 260.623 224.051 278.18 202.593 278.18Z" fill="#5C459B"/>
<path d="M204.722 435.66H200.465V172.742C200.465 171.567 201.418 170.614 202.593 170.614C203.769 170.614 204.722 171.567 204.722 172.742V435.66Z" fill="#F5CF51"/>
<path d="M204.722 208.376L192.886 187.875C192.298 186.857 190.997 186.508 189.979 187.096C188.961 187.684 188.612 188.986 189.2 190.004L201.036 210.504L204.722 208.376Z" fill="#F5CF51"/>
<path d="M204.152 232.896L215.987 212.396C216.575 211.378 216.227 210.076 215.208 209.488C214.19 208.9 212.889 209.249 212.301 210.267L200.465 230.768L204.152 232.896Z" fill="#F5CF51"/>
<path d="M143.08 424.23C144.871 422.547 145.689 420.626 144.983 419.274C144.11 417.599 141.185 417.343 138.064 418.522C138.224 418.115 138.372 417.696 138.507 417.265C140.171 411.953 139.221 406.927 136.385 406.039C133.621 405.173 130.087 408.559 128.37 413.651C126.947 407.817 123.295 403.704 120.164 404.441C117.215 405.134 115.771 409.881 116.719 415.322C112.4 413.415 108.232 413.567 106.904 415.867C105.529 418.248 107.671 422.114 111.751 424.931C109.817 425.58 108.487 426.765 108.305 428.252C108.081 430.079 109.647 431.879 112.131 432.992C111.993 433.346 111.956 433.703 112.037 434.048C112.296 435.149 113.692 435.829 115.517 435.9V435.907H115.788C115.795 435.907 115.802 435.907 115.81 435.907H138.856V435.887C139.305 435.827 139.641 435.638 139.755 435.334C139.831 435.13 139.798 434.901 139.68 434.67C140.893 434.552 141.805 434.073 142.105 433.272C142.339 432.648 142.163 431.927 141.678 431.221C144.829 431.01 147.251 429.629 147.328 427.852C147.395 426.29 145.629 424.876 143.08 424.23Z" fill="#9E8942"/>
<path d="M191.6 414.431C194.893 411.336 196.398 407.804 195.1 405.317C193.493 402.238 188.115 401.767 182.375 403.934C182.669 403.186 182.941 402.415 183.189 401.623C186.248 391.854 184.501 382.611 179.287 380.978C174.204 379.386 167.704 385.613 164.546 394.976C161.93 384.247 155.213 376.684 149.455 378.039C144.033 379.314 141.375 388.044 143.12 398.05C135.176 394.543 127.512 394.822 125.069 399.052C122.541 403.431 126.479 410.54 133.982 415.721C130.425 416.914 127.979 419.093 127.645 421.829C127.234 425.188 130.114 428.5 134.681 430.545C134.428 431.198 134.361 431.854 134.51 432.487C134.986 434.513 137.552 435.763 140.908 435.895V435.906H141.408C141.42 435.906 141.434 435.906 141.447 435.906H183.83V435.869C184.656 435.76 185.273 435.413 185.482 434.852C185.623 434.478 185.563 434.057 185.344 433.632C187.575 433.416 189.254 432.533 189.804 431.061C190.234 429.914 189.911 428.588 189.02 427.289C194.815 426.901 199.268 424.362 199.41 421.094C199.534 418.221 196.288 415.62 191.6 414.431Z" fill="#F5CF51"/>
<path d="M480.153 416.639C477.22 413.883 475.88 410.738 477.037 408.523C478.468 405.781 483.256 405.362 488.367 407.292C488.106 406.626 487.863 405.939 487.642 405.233C484.918 396.535 486.474 388.304 491.117 386.85C495.643 385.433 501.431 390.978 504.244 399.315C506.573 389.761 512.554 383.027 517.681 384.233C522.509 385.368 524.876 393.142 523.322 402.052C530.396 398.929 537.221 399.177 539.395 402.944C541.646 406.843 538.14 413.173 531.458 417.787C534.626 418.849 536.804 420.79 537.101 423.226C537.467 426.217 534.903 429.166 530.836 430.987C531.061 431.568 531.121 432.152 530.989 432.716C530.564 434.52 528.279 435.633 525.291 435.75V435.761H524.846C524.835 435.761 524.823 435.761 524.812 435.761H487.072V435.728C486.336 435.631 485.786 435.322 485.6 434.822C485.475 434.489 485.528 434.114 485.723 433.736C483.737 433.543 482.242 432.758 481.751 431.446C481.369 430.425 481.656 429.244 482.45 428.087C477.289 427.742 473.324 425.481 473.198 422.571C473.088 420.013 475.978 417.698 480.153 416.639Z" fill="#9E8942"/>
<path d="M523.772 428.065C522.587 426.952 522.046 425.681 522.513 424.786C523.091 423.678 525.026 423.509 527.091 424.289C526.986 424.02 526.887 423.742 526.798 423.457C525.698 419.942 526.326 416.617 528.202 416.029C530.031 415.457 532.37 417.697 533.506 421.066C534.447 417.206 536.864 414.485 538.936 414.972C540.886 415.431 541.842 418.572 541.215 422.172C544.073 420.91 546.83 421.01 547.709 422.532C548.618 424.108 547.202 426.666 544.502 428.53C545.782 428.959 546.662 429.743 546.782 430.728C546.93 431.936 545.894 433.128 544.251 433.864C544.342 434.098 544.366 434.335 544.313 434.562C544.141 435.291 543.218 435.741 542.011 435.788V435.793H541.831C541.826 435.793 541.821 435.793 541.817 435.793H526.568V435.779C526.27 435.74 526.049 435.615 525.973 435.414C525.923 435.279 525.944 435.127 526.023 434.974C525.22 434.897 524.616 434.579 524.418 434.049C524.264 433.637 524.38 433.16 524.7 432.692C522.615 432.552 521.013 431.639 520.962 430.463C520.917 429.429 522.085 428.493 523.772 428.065Z" fill="#9E8942"/>
<path d="M337.933 417.747C335.169 415.15 333.906 412.185 334.996 410.097C336.345 407.513 340.858 407.117 345.676 408.937C345.429 408.309 345.201 407.662 344.992 406.997C342.425 398.797 343.891 391.039 348.268 389.669C352.534 388.333 357.99 393.56 360.641 401.418C362.837 392.413 368.474 386.065 373.308 387.202C377.858 388.272 380.089 395.6 378.624 403.998C385.292 401.055 391.725 401.289 393.775 404.839C395.897 408.515 392.591 414.482 386.294 418.831C389.279 419.832 391.332 421.661 391.613 423.957C391.958 426.777 389.54 429.556 385.707 431.273C385.919 431.821 385.976 432.372 385.851 432.903C385.451 434.603 383.297 435.652 380.481 435.763V435.773H380.061C380.05 435.773 380.039 435.773 380.028 435.773H344.455V435.742C343.761 435.651 343.243 435.359 343.067 434.889C342.95 434.574 343 434.221 343.184 433.864C341.311 433.683 339.902 432.942 339.44 431.706C339.079 430.743 339.35 429.63 340.098 428.54C335.234 428.214 331.497 426.083 331.378 423.34C331.274 420.928 333.998 418.745 337.933 417.747Z" fill="#F5CF51"/>
<path d="M377.929 425.562C376.363 424.091 375.648 422.412 376.265 421.229C377.029 419.765 379.586 419.541 382.315 420.572C382.175 420.216 382.046 419.849 381.928 419.473C380.474 414.828 381.304 410.434 383.783 409.658C386.2 408.901 389.29 411.862 390.791 416.313C392.035 411.212 395.228 407.617 397.966 408.261C400.544 408.867 401.807 413.017 400.978 417.774C404.754 416.107 408.398 416.24 409.559 418.251C410.761 420.332 408.889 423.713 405.322 426.176C407.013 426.743 408.175 427.779 408.335 429.079C408.53 430.676 407.161 432.251 404.989 433.223C405.11 433.533 405.142 433.845 405.071 434.146C404.844 435.109 403.625 435.704 402.029 435.766V435.772H401.792C401.785 435.772 401.779 435.772 401.773 435.772H381.624V435.754C381.231 435.703 380.938 435.538 380.838 435.271C380.771 435.093 380.8 434.893 380.904 434.691C379.843 434.588 379.045 434.169 378.783 433.469C378.579 432.924 378.732 432.293 379.156 431.675C376.401 431.491 374.284 430.284 374.217 428.731C374.157 427.364 375.7 426.127 377.929 425.562Z" fill="#9E8942"/>
<path d="M398.191 182.697C397.939 182.697 397.697 182.736 397.469 182.807C397.477 182.687 397.482 182.566 397.482 182.444C397.482 179.636 395.206 177.359 392.397 177.359C390.068 177.359 388.104 178.926 387.503 181.063C387.218 180.983 386.917 180.94 386.607 180.94C384.787 180.94 383.312 182.415 383.312 184.234C383.312 186.053 384.787 187.528 386.607 187.528C386.664 187.528 386.722 187.527 386.779 187.524V187.528H398.191C399.524 187.528 400.606 186.447 400.606 185.113C400.606 183.779 399.525 182.697 398.191 182.697Z" fill="#5C459B"/>
<path d="M309.426 127.173C308.051 127.173 306.765 127.553 305.666 128.212C304.528 123.293 300.123 119.624 294.857 119.624C294.394 119.624 293.938 119.656 293.489 119.711C291.036 114.244 285.546 110.436 279.166 110.436C270.5 110.436 263.475 117.461 263.475 126.127C263.475 126.22 263.477 126.312 263.479 126.404C262.43 125.908 261.258 125.629 260.021 125.629C255.55 125.629 251.926 129.253 251.926 133.724C251.926 138.194 255.55 141.818 260.021 141.818H309.426C313.47 141.818 316.748 138.54 316.748 134.496C316.748 130.452 313.47 127.173 309.426 127.173Z" fill="#5C459B"/>
<path d="M234.125 301.545C235.03 301.545 235.876 301.795 236.598 302.229C237.347 298.993 240.245 296.579 243.708 296.579C244.013 296.579 244.313 296.6 244.608 296.637C246.222 293.04 249.833 290.535 254.03 290.535C259.731 290.535 264.352 295.157 264.352 300.857C264.352 300.918 264.351 300.979 264.35 301.039C265.04 300.713 265.811 300.53 266.625 300.53C269.566 300.53 271.95 302.913 271.95 305.854C271.95 308.795 269.566 311.179 266.625 311.179H234.125C231.465 311.179 229.309 309.022 229.309 306.362C229.309 303.702 231.465 301.545 234.125 301.545Z" fill="#5C459B"/>
<path d="M557.38 406.934L557.303 407.226C557.295 407.258 557.095 408.012 556.601 408.945C556.142 409.811 555.332 411 554.077 411.74C552.822 412.481 551.39 412.616 550.41 412.598C549.355 412.58 548.598 412.39 548.566 412.382L548.273 412.308L548.35 412.016C548.358 411.984 548.558 411.23 549.052 410.298C549.511 409.431 550.321 408.242 551.576 407.502C552.83 406.761 554.263 406.627 555.243 406.644C556.298 406.663 557.055 406.852 557.087 406.86L557.38 406.934ZM549.024 411.865C549.826 412.006 552.02 412.259 553.773 411.225C555.529 410.188 556.366 408.148 556.629 407.378C555.827 407.237 553.633 406.984 551.88 408.018C550.124 409.054 549.288 411.095 549.024 411.865Z" fill="#F5CF51"/>
<path d="M553.191 413.945C550.403 414.996 547.297 413.604 547.297 413.604C547.297 413.604 548.711 410.508 551.499 409.456C554.287 408.405 557.393 409.797 557.393 409.797C557.393 409.797 555.979 412.893 553.191 413.945Z" fill="#5C459B"/>
<path d="M547.213 373.43L547.209 373.805C547.209 373.846 547.195 374.817 546.882 376.092C546.591 377.276 545.973 378.956 544.683 380.229C543.393 381.503 541.706 382.099 540.517 382.375C539.239 382.672 538.268 382.673 538.227 382.672L537.852 382.671L537.855 382.296C537.856 382.255 537.869 381.284 538.182 380.009C538.474 378.825 539.092 377.145 540.381 375.872C541.671 374.599 543.358 374.003 544.547 373.727C545.825 373.43 546.797 373.429 546.837 373.429L547.213 373.43ZM538.624 381.909C539.633 381.836 542.358 381.477 544.159 379.699C545.965 377.916 546.357 375.201 546.441 374.193C545.431 374.265 542.707 374.624 540.905 376.402C539.1 378.185 538.708 380.9 538.624 381.909Z" fill="#F5CF51"/>
<path d="M544.294 383.161C541.248 385.274 537.078 384.535 537.078 384.535C537.078 384.535 537.847 380.37 540.893 378.258C543.938 376.145 548.108 376.884 548.108 376.884C548.108 376.884 547.339 381.048 544.294 383.161Z" fill="#5C459B"/>
<path d="M160.489 363.602L160.727 363.805C160.753 363.827 161.366 364.355 162.012 365.237C162.613 366.057 163.355 367.351 163.478 368.856C163.601 370.361 163.078 371.758 162.619 372.664C162.124 373.64 161.605 374.26 161.583 374.286L161.381 374.525L161.144 374.322C161.118 374.3 160.505 373.772 159.859 372.889C159.258 372.07 158.516 370.776 158.393 369.271C158.27 367.766 158.793 366.369 159.252 365.463C159.747 364.487 160.266 363.866 160.288 363.841L160.489 363.602ZM161.307 373.624C161.802 372.941 163.03 371.009 162.859 368.906C162.687 366.799 161.162 365.096 160.563 364.503C160.069 365.186 158.84 367.118 159.012 369.221C159.184 371.328 160.709 373.031 161.307 373.624Z" fill="#F5CF51"/>
<path d="M165.14 370.677C164.859 373.752 162.156 376.02 162.156 376.02C162.156 376.02 159.907 373.3 160.188 370.224C160.469 367.149 163.173 364.881 163.173 364.881C163.173 364.881 165.421 367.601 165.14 370.677Z" fill="#5C459B"/>
<path d="M101.207 399.132L101.469 399.115C101.498 399.113 102.177 399.071 103.084 399.222C103.926 399.363 105.132 399.706 106.09 400.539C107.048 401.373 107.554 402.519 107.809 403.335C108.085 404.212 108.136 404.89 108.139 404.919L108.158 405.181L107.895 405.198C107.867 405.2 107.188 405.243 106.281 405.091C105.438 404.951 104.232 404.608 103.275 403.774C102.317 402.941 101.811 401.794 101.555 400.979C101.28 400.101 101.228 399.423 101.226 399.395L101.207 399.132ZM107.584 404.682C107.48 403.981 107.085 402.097 105.747 400.933C104.406 399.766 102.489 399.637 101.78 399.631C101.884 400.332 102.279 402.216 103.617 403.381C104.958 404.547 106.876 404.677 107.584 404.682Z" fill="#F5CF51"/>
<path d="M108.158 400.659C109.795 402.675 109.499 405.626 109.499 405.626C109.499 405.626 106.55 405.31 104.913 403.294C103.276 401.279 103.572 398.327 103.572 398.327C103.572 398.327 106.521 398.644 108.158 400.659Z" fill="#5C459B"/>
<path d="M468.605 391.132L468.9 391.125C468.932 391.124 469.695 391.108 470.705 391.319C471.644 391.515 472.98 391.955 474.016 392.933C475.052 393.911 475.567 395.22 475.816 396.146C476.084 397.142 476.112 397.905 476.112 397.937L476.122 398.232L475.827 398.239C475.795 398.24 475.032 398.256 474.022 398.045C473.083 397.849 471.747 397.41 470.711 396.432C469.675 395.453 469.16 394.144 468.911 393.218C468.643 392.222 468.615 391.459 468.615 391.427L468.605 391.132ZM475.502 397.646C475.417 396.855 475.061 394.725 473.614 393.358C472.164 391.989 470.02 391.756 469.225 391.718C469.31 392.509 469.667 394.639 471.114 396.005C472.564 397.375 474.708 397.608 475.502 397.646Z" fill="#F5CF51"/>
<path d="M476.327 393.167C478.07 395.501 477.604 398.797 477.604 398.797C477.604 398.797 474.312 398.308 472.568 395.973C470.825 393.639 471.291 390.343 471.291 390.343C471.291 390.343 474.583 390.832 476.327 393.167Z" fill="#5C459B"/>
<path d="M386.907 417.726H250.68L253.158 408.752L257.998 391.229L260.93 380.62L265.251 364.977L273.583 334.824L277.905 319.181L308.285 209.213H329.302L340.436 249.516L359.683 319.181L364.004 334.824L372.335 364.977L376.657 380.62L384.429 408.752L386.907 417.726Z" fill="#F5CF51"/>
<path d="M386.907 417.725H250.68L253.158 408.751L257.999 391.229C352.928 385.621 340.436 249.515 340.436 249.515L384.429 408.751L386.907 417.725Z" fill="#C5A94B"/>
<path d="M414.782 417.725H222.809V435.978H414.782V417.725Z" fill="#C5A94B"/>
<path d="M386.907 417.726H250.68L253.158 408.752H384.429L386.907 417.726Z" fill="#232851"/>
<path d="M364.006 334.824C364.006 334.824 361.152 395.03 291.98 408.802L384.431 408.752L364.006 334.824Z" fill="#AD9236"/>
<path d="M364.007 334.826H273.586L277.908 319.183H359.686L364.007 334.826Z" fill="white"/>
<path d="M376.657 380.62H260.93L265.251 364.978H372.335L376.657 380.62Z" fill="white"/>
<path d="M370.376 417.725C370.376 417.725 344.93 436.936 250.68 435.978H414.78V417.725L370.376 417.725Z" fill="#AD9236"/>
<path d="M442.99 442H191.929C190.225 442 188.844 440.619 188.844 438.915V438.825C188.844 437.121 190.225 435.74 191.929 435.74H442.99C444.694 435.74 446.076 437.121 446.076 438.825V438.915C446.076 440.619 444.694 442 442.99 442Z" fill="#242850"/>
<path d="M196.686 442H156.031C154.327 442 152.945 440.619 152.945 438.915V438.825C152.945 437.121 154.327 435.74 156.031 435.74H196.686C198.39 435.74 199.772 437.121 199.772 438.825V438.915C199.772 440.619 198.391 442 196.686 442Z" fill="#242850"/>
<path d="M137.389 442H94.6752C92.9711 442 91.5898 440.619 91.5898 438.915V438.825C91.5898 437.121 92.9711 435.74 94.6752 435.74H137.389C139.093 435.74 140.475 437.121 140.475 438.825V438.915C140.475 440.619 139.093 442 137.389 442Z" fill="#242850"/>
<path d="M497.188 442H462.124C460.421 442 459.039 440.619 459.039 438.915V438.825C459.039 437.121 460.42 435.74 462.124 435.74H497.188C498.892 435.74 500.273 437.121 500.273 438.825V438.915C500.273 440.619 498.892 442 497.188 442Z" fill="#242850"/>
<path d="M543.024 442H516.355C514.651 442 513.27 440.619 513.27 438.915V438.825C513.27 437.121 514.651 435.74 516.355 435.74H543.024C544.728 435.74 546.109 437.121 546.109 438.825V438.915C546.109 440.619 544.728 442 543.024 442Z" fill="#242850"/>
</svg>
