<svg width="36" height="36" viewBox="0 0 36 36" fill="none" xmlns="http://www.w3.org/2000/svg">
<g clip-path="url(#clip0_902_1145)">
<path d="M28.9688 21.9375C26.8689 21.9375 24.9813 22.8631 23.6919 24.3274L18.9986 21.6183C19.443 20.4976 19.6875 19.2769 19.6875 18C19.6875 16.7231 19.443 15.5024 18.9986 14.3818L23.6919 11.6726C24.9813 13.1369 26.8689 14.0625 28.9688 14.0625C32.8458 14.0625 36 10.9083 36 7.03125C36 3.15422 32.8458 0 28.9688 0C25.0917 0 21.9375 3.15422 21.9375 7.03125C21.9375 7.80026 22.062 8.54058 22.2912 9.23372L17.598 11.9429C15.7946 9.63935 12.9892 8.15625 9.84375 8.15625C4.41591 8.15625 0 12.5722 0 18C0 23.4278 4.41591 27.8438 9.84375 27.8438C12.9892 27.8438 15.7946 26.3606 17.598 24.0572L22.2912 26.7664C22.062 27.4595 21.9375 28.1998 21.9375 28.9688C21.9375 32.8459 25.0917 36.0001 28.9688 36.0001C32.8458 36.0001 36 32.8459 36 28.9688C36 25.0918 32.8458 21.9375 28.9688 21.9375ZM28.9688 2.8125C31.295 2.8125 33.1875 4.70503 33.1875 7.03125C33.1875 9.35747 31.295 11.25 28.9688 11.25C26.6425 11.25 24.75 9.35747 24.75 7.03125C24.75 4.70503 26.6425 2.8125 28.9688 2.8125ZM9.84375 25.0312C5.96672 25.0312 2.8125 21.877 2.8125 18C2.8125 14.123 5.96672 10.9688 9.84375 10.9688C13.7208 10.9688 16.875 14.123 16.875 18C16.875 21.877 13.7208 25.0312 9.84375 25.0312ZM28.9688 33.1875C26.6425 33.1875 24.75 31.295 24.75 28.9688C24.75 26.6425 26.6425 24.75 28.9688 24.75C31.295 24.75 33.1875 26.6425 33.1875 28.9688C33.1875 31.295 31.295 33.1875 28.9688 33.1875Z" fill="#5C459B"/>
<path d="M9.84375 13.7812C7.51753 13.7812 5.625 15.6738 5.625 18C5.625 20.3262 7.51753 22.2188 9.84375 22.2188C12.17 22.2188 14.0625 20.3262 14.0625 18C14.0625 15.6738 12.17 13.7812 9.84375 13.7812ZM9.84375 19.4062C9.06834 19.4062 8.4375 18.7754 8.4375 18C8.4375 17.2246 9.06834 16.5938 9.84375 16.5938C10.6192 16.5938 11.25 17.2246 11.25 18C11.25 18.7754 10.6192 19.4062 9.84375 19.4062Z" fill="#5C459B"/>
<path d="M28.9688 8.4375C29.7454 8.4375 30.375 7.8079 30.375 7.03125C30.375 6.2546 29.7454 5.625 28.9688 5.625C28.1921 5.625 27.5625 6.2546 27.5625 7.03125C27.5625 7.8079 28.1921 8.4375 28.9688 8.4375Z" fill="#5C459B"/>
<path d="M28.9688 30.375C29.7454 30.375 30.375 29.7454 30.375 28.9688C30.375 28.1921 29.7454 27.5625 28.9688 27.5625C28.1921 27.5625 27.5625 28.1921 27.5625 28.9688C27.5625 29.7454 28.1921 30.375 28.9688 30.375Z" fill="#5C459B"/>
</g>
<defs>
<clipPath id="clip0_902_1145">
<rect width="36" height="36" fill="white"/>
</clipPath>
</defs>
</svg>
