<svg width="36" height="36" viewBox="0 0 36 36" fill="none" xmlns="http://www.w3.org/2000/svg">
<path d="M13.5 1.125H4.5C3.60489 1.125 2.74645 1.48058 2.11351 2.11351C1.48058 2.74645 1.125 3.60489 1.125 4.5V20.25C1.125 21.1451 1.48058 22.0036 2.11351 22.6365C2.74645 23.2694 3.60489 23.625 4.5 23.625H13.5C14.3951 23.625 15.2536 23.2694 15.8865 22.6365C16.5194 22.0036 16.875 21.1451 16.875 20.25V4.5C16.875 3.60489 16.5194 2.74645 15.8865 2.11351C15.2536 1.48058 14.3951 1.125 13.5 1.125ZM14.625 20.25C14.625 20.5484 14.5065 20.8345 14.2955 21.0455C14.0845 21.2565 13.7984 21.375 13.5 21.375H4.5C4.20163 21.375 3.91548 21.2565 3.7045 21.0455C3.49353 20.8345 3.375 20.5484 3.375 20.25V4.5C3.375 4.20163 3.49353 3.91548 3.7045 3.7045C3.91548 3.49353 4.20163 3.375 4.5 3.375H13.5C13.7984 3.375 14.0845 3.49353 14.2955 3.7045C14.5065 3.91548 14.625 4.20163 14.625 4.5V20.25Z" fill="#5C459B"/>
<path d="M13.5 25.875H4.5C3.60489 25.875 2.74645 26.2306 2.11351 26.8635C1.48058 27.4964 1.125 28.3549 1.125 29.25V31.5C1.125 32.3951 1.48058 33.2536 2.11351 33.8865C2.74645 34.5194 3.60489 34.875 4.5 34.875H13.5C14.3951 34.875 15.2536 34.5194 15.8865 33.8865C16.5194 33.2536 16.875 32.3951 16.875 31.5V29.25C16.875 28.3549 16.5194 27.4964 15.8865 26.8635C15.2536 26.2306 14.3951 25.875 13.5 25.875ZM14.625 31.5C14.625 31.7984 14.5065 32.0845 14.2955 32.2955C14.0845 32.5065 13.7984 32.625 13.5 32.625H4.5C4.20163 32.625 3.91548 32.5065 3.7045 32.2955C3.49353 32.0845 3.375 31.7984 3.375 31.5V29.25C3.375 28.9516 3.49353 28.6655 3.7045 28.4545C3.91548 28.2435 4.20163 28.125 4.5 28.125H13.5C13.7984 28.125 14.0845 28.2435 14.2955 28.4545C14.5065 28.6655 14.625 28.9516 14.625 29.25V31.5Z" fill="#5C459B"/>
<path d="M31.5 12.375H22.5C21.6049 12.375 20.7464 12.7306 20.1135 13.3635C19.4806 13.9964 19.125 14.8549 19.125 15.75V31.5C19.125 32.3951 19.4806 33.2536 20.1135 33.8865C20.7464 34.5194 21.6049 34.875 22.5 34.875H31.5C32.3951 34.875 33.2536 34.5194 33.8865 33.8865C34.5194 33.2536 34.875 32.3951 34.875 31.5V15.75C34.875 14.8549 34.5194 13.9964 33.8865 13.3635C33.2536 12.7306 32.3951 12.375 31.5 12.375ZM32.625 31.5C32.625 31.7984 32.5065 32.0845 32.2955 32.2955C32.0845 32.5065 31.7984 32.625 31.5 32.625H22.5C22.2016 32.625 21.9155 32.5065 21.7045 32.2955C21.4935 32.0845 21.375 31.7984 21.375 31.5V15.75C21.375 15.4516 21.4935 15.1655 21.7045 14.9545C21.9155 14.7435 22.2016 14.625 22.5 14.625H31.5C31.7984 14.625 32.0845 14.7435 32.2955 14.9545C32.5065 15.1655 32.625 15.4516 32.625 15.75V31.5Z" fill="#5C459B"/>
<path d="M31.5 1.125H22.5C21.6049 1.125 20.7464 1.48058 20.1135 2.11351C19.4806 2.74645 19.125 3.60489 19.125 4.5V6.75C19.125 7.64511 19.4806 8.50355 20.1135 9.13649C20.7464 9.76942 21.6049 10.125 22.5 10.125H31.5C32.3951 10.125 33.2536 9.76942 33.8865 9.13649C34.5194 8.50355 34.875 7.64511 34.875 6.75V4.5C34.875 3.60489 34.5194 2.74645 33.8865 2.11351C33.2536 1.48058 32.3951 1.125 31.5 1.125ZM32.625 6.75C32.625 7.04837 32.5065 7.33452 32.2955 7.5455C32.0845 7.75647 31.7984 7.875 31.5 7.875H22.5C22.2016 7.875 21.9155 7.75647 21.7045 7.5455C21.4935 7.33452 21.375 7.04837 21.375 6.75V4.5C21.375 4.20163 21.4935 3.91548 21.7045 3.7045C21.9155 3.49353 22.2016 3.375 22.5 3.375H31.5C31.7984 3.375 32.0845 3.49353 32.2955 3.7045C32.5065 3.91548 32.625 4.20163 32.625 4.5V6.75Z" fill="#5C459B"/>
</svg>
