<svg width="30" height="30" viewBox="0 0 30 30" fill="none" xmlns="http://www.w3.org/2000/svg">
<path d="M12.1195 16.56C12.0295 16.56 10.0495 16.56 9.14953 16.56C8.66953 16.56 8.51953 16.38 8.51953 15.93C8.51953 14.73 8.51953 13.5 8.51953 12.3C8.51953 11.82 8.69953 11.67 9.14953 11.67H12.1195C12.1195 11.58 12.1195 9.84003 12.1195 9.03003C12.1195 7.83003 12.3295 6.69003 12.9295 5.64003C13.5595 4.56003 14.4595 3.84003 15.5995 3.42003C16.3495 3.15003 17.0995 3.03003 17.9095 3.03003H20.8495C21.2695 3.03003 21.4495 3.21003 21.4495 3.63003V7.05003C21.4495 7.47003 21.2695 7.65003 20.8495 7.65003C20.0395 7.65003 19.2295 7.65003 18.4195 7.68003C17.6095 7.68003 17.1895 8.07003 17.1895 8.91003C17.1595 9.81003 17.1895 10.68 17.1895 11.61H20.6695C21.1495 11.61 21.3295 11.79 21.3295 12.27V15.9C21.3295 16.38 21.1795 16.53 20.6695 16.53C19.5895 16.53 17.2795 16.53 17.1895 16.53V26.31C17.1895 26.82 17.0395 27 16.4995 27C15.2395 27 14.0095 27 12.7495 27C12.2995 27 12.1195 26.82 12.1195 26.37C12.1195 23.22 12.1195 16.65 12.1195 16.56Z" fill="#5C459B"/>
</svg>
