<svg width="1058" height="189" viewBox="0 0 1058 189" fill="none" xmlns="http://www.w3.org/2000/svg">
<g opacity="0.05">
<path d="M339.736 79.3327L339.633 61.1012L446.083 60.6152L446.188 78.8475L404.885 79.0355L405.512 188.891L381.665 189L381.039 79.1447L339.736 79.3327Z" fill="#5069B2"/>
<path d="M462.013 188.637L461.258 56.2235L483.895 56.1198L484.171 104.481L484.689 104.479C487.434 100.912 491.219 97.9587 496.216 95.464C501.042 93.1248 506.218 91.8647 511.749 91.8398C521.772 91.7942 530.083 94.6919 536.856 100.378C543.455 106.066 546.964 115.32 547.036 127.989L547.379 188.247L524.568 188.351L524.241 130.874C524.159 116.66 518.762 109.576 507.874 109.626C501.308 109.656 495.62 112.153 491.328 117.273C486.864 122.392 484.651 128.273 484.689 135.072L484.995 188.532L462.012 188.637H462.013Z" fill="#5069B2"/>
<path d="M571.654 80.7493L571.525 58.1913L596.238 58.0786L596.366 80.6367L571.654 80.7493ZM573.304 188.128L572.771 94.6509L595.409 94.5472L595.942 188.025L573.304 188.128H573.304Z" fill="#5069B2"/>
<path d="M623.082 187.897L622.549 94.4197L644.841 94.3181L644.909 106.215L645.082 106.214C646.791 102.807 650.228 99.3925 655.049 96.2805C659.869 93.0137 666.255 91.4391 674.03 91.4045C684.398 91.3575 692.711 94.2552 698.965 99.9434C705.218 105.632 708.209 114.889 708.281 127.559L708.623 187.508L685.639 187.612L685.312 130.29C685.23 115.921 679.833 108.838 668.946 108.887C662.379 108.917 656.863 111.26 652.397 116.07C647.931 120.88 645.892 126.761 645.93 133.714L646.239 187.792L623.083 187.897H623.082Z" fill="#5069B2"/>
<path d="M733.501 187.394L732.746 54.9807L755.557 54.8763L755.991 131.049L792.932 93.6433L821.791 93.5119L783.473 131.697L824.744 186.978L797.959 187.1L768.694 146.288L756.321 158.705L756.485 187.289L733.501 187.394Z" fill="#5069B2"/>
<path d="M832.067 186.773L883.18 58.4497L909.445 58.3301L961.846 186.182L936.443 186.297L924.511 154.676L869.04 154.93L857.47 186.658L832.066 186.773H832.067ZM875.336 137.596L918.02 137.401L905.734 104.238C904.856 101.924 903.977 99.3015 902.924 96.3706C901.87 93.4397 900.815 90.1998 899.587 86.8065C898.357 83.2584 897.478 80.6358 896.949 78.9381L895.912 78.9429C895.573 80.0261 892.683 88.5374 887.417 104.476L875.336 137.597V137.596Z" fill="#5069B2"/>
<path d="M962.953 138.584C962.865 123.287 966.944 111.062 975.36 102.217C983.778 93.3718 994.294 88.8428 1007.25 88.784C1013.48 88.7557 1018.84 90.1216 1023.35 92.7276C1027.86 95.3336 1031.33 98.4082 1033.77 101.951L1033.49 52.6625L1056.3 52.5588L1057.05 184.972L1034.93 185.073L1034.87 172.867C1032.64 177.049 1029.21 180.464 1024.21 183.576C1019.22 186.535 1013.7 188.105 1007.65 188.133C1002.29 188.157 996.928 187.254 991.906 185.423C986.883 183.592 982.029 180.833 977.687 176.99C973.173 173.302 969.686 168.065 967.056 161.432C964.427 154.801 963.001 147.236 962.951 138.584H962.953ZM986.627 138.476C986.685 148.674 988.977 156.543 993.33 162.24C997.856 167.937 1003.57 170.692 1010.83 170.659C1017.92 170.627 1023.6 167.665 1027.89 161.928C1032.35 156.191 1034.38 148.301 1034.32 138.258C1034.27 128.679 1032.15 120.964 1027.8 115.111C1023.44 109.26 1017.72 106.35 1010.47 106.383C1002.86 106.418 997.004 109.38 992.718 115.271C988.603 121.007 986.573 128.741 986.629 138.476H986.627Z" fill="#5069B2"/>
<path d="M733.501 187.394L732.746 54.9807L755.557 54.8763L755.991 131.049L792.932 93.6433L821.791 93.5119L783.473 131.697L824.744 186.978L797.959 187.1L768.694 146.288L756.321 158.705L756.485 187.289L733.501 187.394Z" fill="url(#paint0_linear_1225_2026)"/>
<path d="M30.986 185.328L18.3711 185.386C8.3476 185.431 0.357437 178.206 0.307185 169.398L0.000240312 115.63C-0.0507855 106.668 8.03062 99.5236 17.8817 99.4787L30.4959 99.4213C40.5193 99.3757 48.5095 106.601 48.5598 115.408L48.8667 169.177C48.9169 177.984 41.0095 185.282 30.986 185.328Z" fill="#5069B2"/>
<path d="M256.17 184.297L243.556 184.354C233.532 184.4 225.541 177.175 225.492 168.367L225.078 95.9025C225.027 86.9405 233.108 79.7958 242.959 79.7516L255.574 79.6942C265.597 79.6486 273.588 86.8741 273.638 95.6812L274.051 168.146C274.101 176.952 266.021 184.252 256.17 184.297Z" fill="#5C459B"/>
<path d="M106.524 184.979L93.9084 185.037C83.8857 185.082 75.8948 177.858 75.8445 169.05L75.2639 67.229C75.2129 58.267 83.2943 51.123 93.1445 51.0781L105.76 51.0201C115.784 50.9744 123.774 58.2 123.824 67.0078L124.406 168.828C124.455 177.635 116.374 184.935 106.524 184.979Z" fill="#6160A1"/>
<path d="M181.514 184.638L168.899 184.695C158.875 184.741 150.885 177.516 150.835 168.708L149.965 16.2078C149.914 7.24652 157.995 0.101828 167.846 0.0568968L180.461 0.000214883C190.484 -0.0454072 198.474 7.17947 198.525 15.9873L199.394 168.487C199.445 177.294 191.537 184.592 181.514 184.638Z" fill="#5D5099"/>
</g>
<defs>
<linearGradient id="paint0_linear_1225_2026" x1="338.264" y1="124.301" x2="1095.16" y2="119.983" gradientUnits="userSpaceOnUse">
<stop stop-color="#5069B2"/>
<stop offset="1" stop-color="#5C459B"/>
</linearGradient>
</defs>
</svg>
