<svg width="30" height="30" viewBox="0 0 30 30" fill="none" xmlns="http://www.w3.org/2000/svg">
<path d="M15 8.90625C11.6074 8.90625 8.84766 11.666 8.84766 15.0586C8.84766 18.4512 11.6074 21.2109 15 21.2109C18.3926 21.2109 21.1523 18.4512 21.1523 15.0586C21.1523 11.666 18.3926 8.90625 15 8.90625ZM15 8.90625C11.6074 8.90625 8.84766 11.666 8.84766 15.0586C8.84766 18.4512 11.6074 21.2109 15 21.2109C18.3926 21.2109 21.1523 18.4512 21.1523 15.0586C21.1523 11.666 18.3926 8.90625 15 8.90625ZM25.6055 0H4.39453C1.96875 0 0 1.96875 0 4.39453V25.6055C0 28.0312 1.96875 30 4.39453 30H25.6055C28.0312 30 30 28.0312 30 25.6055V4.39453C30 1.96875 28.0312 0 25.6055 0ZM15 22.9688C10.6407 22.9688 7.08984 19.4179 7.08984 15.0586C7.08984 10.6992 10.6407 7.14844 15 7.14844C19.3593 7.14844 22.9102 10.6992 22.9102 15.0586C22.9102 19.4179 19.3593 22.9688 15 22.9688ZM24.668 7.14844C23.7012 7.14844 22.9102 6.35742 22.9102 5.39062C22.9102 4.42383 23.7012 3.63281 24.668 3.63281C25.6348 3.63281 26.4258 4.42383 26.4258 5.39062C26.4258 6.35742 25.6348 7.14844 24.668 7.14844ZM15 8.90625C11.6074 8.90625 8.84766 11.666 8.84766 15.0586C8.84766 18.4512 11.6074 21.2109 15 21.2109C18.3926 21.2109 21.1523 18.4512 21.1523 15.0586C21.1523 11.666 18.3926 8.90625 15 8.90625ZM15 8.90625C11.6074 8.90625 8.84766 11.666 8.84766 15.0586C8.84766 18.4512 11.6074 21.2109 15 21.2109C18.3926 21.2109 21.1523 18.4512 21.1523 15.0586C21.1523 11.666 18.3926 8.90625 15 8.90625ZM15 8.90625C11.6074 8.90625 8.84766 11.666 8.84766 15.0586C8.84766 18.4512 11.6074 21.2109 15 21.2109C18.3926 21.2109 21.1523 18.4512 21.1523 15.0586C21.1523 11.666 18.3926 8.90625 15 8.90625Z" fill="#E6E6E6" fill-opacity="0.5"/>
</svg>
