<svg width="30" height="30" viewBox="0 0 30 30" fill="none" xmlns="http://www.w3.org/2000/svg">
<path d="M27.0002 27.0001V18.2101C27.0002 13.8901 26.0702 10.5901 21.0302 10.5901C18.6002 10.5901 16.9802 11.9101 16.3202 13.1701H16.2602V10.9801H11.4902V27.0001H16.4702V19.0501C16.4702 16.9501 16.8602 14.9401 19.4402 14.9401C21.9902 14.9401 22.0202 17.3101 22.0202 19.1701V26.9701H27.0002V27.0001Z" fill="#5C459B"/>
<path d="M3.39062 10.98H8.37063V27H3.39062V10.98Z" fill="#5C459B"/>
<path d="M5.88 3C4.29 3 3 4.29 3 5.88C3 7.47 4.29 8.79 5.88 8.79C7.47 8.79 8.76 7.47 8.76 5.88C8.76 4.29 7.47 3 5.88 3Z" fill="#5C459B"/>
</svg>
