<svg width="42" height="35" viewBox="0 0 42 35" fill="none" xmlns="http://www.w3.org/2000/svg">
<path d="M4.74413 34.429L2.81271 34.4397C1.27806 34.4482 0.0547256 33.1131 0.0470316 31.4856L3.67931e-05 21.5506C-0.00777553 19.8946 1.22953 18.5746 2.73778 18.5663L4.66909 18.5557C6.20373 18.5473 7.42707 19.8824 7.43477 21.5097L7.48176 31.4449C7.48945 33.0721 6.27878 34.4206 4.74413 34.429Z" fill="#5069B2"/>
<path d="M39.2193 34.239L37.288 34.2496C35.7534 34.2581 34.5299 32.9231 34.5224 31.2956L34.459 17.906C34.4511 16.2501 35.6884 14.9299 37.1966 14.9218L39.1281 14.9112C40.6626 14.9027 41.8861 16.2378 41.8938 17.8652L41.9571 31.2549C41.9647 32.882 40.7276 34.2307 39.2193 34.239Z" fill="#5C459B"/>
<path d="M16.3076 34.365L14.3761 34.3757C12.8416 34.3842 11.6181 33.0492 11.6104 31.4217L11.5215 12.6078C11.5137 10.9519 12.751 9.63186 14.2591 9.62356L16.1907 9.61283C17.7253 9.6044 18.9487 10.9395 18.9564 12.567L19.0454 31.3807C19.053 33.0081 17.8158 34.3568 16.3076 34.365Z" fill="#6160A1"/>
<path d="M27.7893 34.3019L25.8579 34.3125C24.3232 34.321 23.0999 32.9859 23.0922 31.3584L22.959 3.18033C22.9512 1.52452 24.1884 0.204362 25.6966 0.19606L27.6281 0.185587C29.1627 0.177157 30.3861 1.51213 30.3938 3.13959L30.5269 31.3177C30.5346 32.9449 29.3239 34.2934 27.7893 34.3019Z" fill="#5D5099"/>
</svg>
