<svg width="34" height="34" viewBox="0 0 34 34" fill="none" xmlns="http://www.w3.org/2000/svg">
<path d="M17 34C16.5597 34 16.1374 33.8251 15.8261 33.5138C15.5148 33.2024 15.3398 32.7801 15.3398 32.3398V1.66016C15.3398 1.21986 15.5148 0.797588 15.8261 0.486248C16.1374 0.174909 16.5597 0 17 0C17.4403 0 17.8626 0.174909 18.1739 0.486248C18.4852 0.797588 18.6602 1.21986 18.6602 1.66016V32.3398C18.6602 32.7801 18.4852 33.2024 18.1739 33.5138C17.8626 33.8251 17.4403 34 17 34Z" fill="#919191"/>
<path d="M32.3398 18.6602H1.66016C1.21986 18.6602 0.797588 18.4852 0.486248 18.1739C0.174909 17.8626 0 17.4403 0 17C0 16.5597 0.174909 16.1374 0.486248 15.8261C0.797588 15.5148 1.21986 15.3398 1.66016 15.3398H32.3398C32.7801 15.3398 33.2024 15.5148 33.5138 15.8261C33.8251 16.1374 34 16.5597 34 17C34 17.4403 33.8251 17.8626 33.5138 18.1739C33.2024 18.4852 32.7801 18.6602 32.3398 18.6602Z" fill="#919191"/>
</svg>
