<svg width="13" height="13" viewBox="0 0 13 13" fill="none" xmlns="http://www.w3.org/2000/svg">
<g clip-path="url(#clip0_1262_125)">
<path d="M9.66529 8.04516L7.56416 10.1463C7.462 10.245 7.32517 10.2996 7.18315 10.2983C7.04113 10.2971 6.90527 10.2401 6.80484 10.1397C6.70441 10.0393 6.64745 9.9034 6.64621 9.76138C6.64498 9.61936 6.69957 9.48253 6.79824 9.38037L8.89937 7.27925C8.96179 7.21558 9.01635 7.14466 9.06187 7.068C9.05374 7.068 9.04724 7.07233 9.03912 7.07233L0.54362 7.05499C0.399961 7.05499 0.262186 6.99793 0.160604 6.89634C0.0590221 6.79476 0.00195376 6.65699 0.00195379 6.51333C0.00195381 6.36967 0.0590222 6.23189 0.160604 6.13031C0.262187 6.02873 0.399962 5.97166 0.54362 5.97166L9.03587 5.989C9.05103 5.989 9.06349 5.99658 9.07812 5.99766C9.03007 5.90603 8.96915 5.82176 8.8972 5.74741L6.79608 3.64629C6.74434 3.59632 6.70308 3.53655 6.67469 3.47046C6.6463 3.40438 6.63136 3.3333 6.63073 3.26138C6.63011 3.18945 6.64381 3.11813 6.67105 3.05156C6.69828 2.98499 6.73851 2.92451 6.78936 2.87365C6.84022 2.8228 6.9007 2.78257 6.96727 2.75534C7.03384 2.7281 7.10516 2.7144 7.17709 2.71502C7.24901 2.71565 7.32009 2.73059 7.38617 2.75898C7.45226 2.78737 7.51203 2.82863 7.56199 2.88037L9.66312 4.98149C10.0693 5.3878 10.2975 5.93881 10.2975 6.51333C10.2975 7.08785 10.0693 7.63885 9.66312 8.04516L9.66529 8.04516Z" fill="#5C459B"/>
<path d="M9.20833 11.9167L10.2917 11.9167C10.7226 11.9167 11.136 11.7455 11.4407 11.4407C11.7455 11.136 11.9167 10.7226 11.9167 10.2917L11.9167 2.70833C11.9167 2.27736 11.7455 1.86403 11.4407 1.55928C11.136 1.25454 10.7226 1.08333 10.2917 1.08333L9.20833 1.08333C9.06467 1.08333 8.9269 1.02626 8.82532 0.924683C8.72374 0.8231 8.66667 0.685325 8.66667 0.541666C8.66667 0.398007 8.72374 0.260232 8.82532 0.15865C8.9269 0.0570679 9.06467 -3.44037e-07 9.20833 -3.31478e-07L10.2917 -2.3677e-07C11.0097 0.000859916 11.6981 0.286478 12.2058 0.794202C12.7135 1.30193 12.9991 1.9903 13 2.70833L13 10.2917C12.9991 11.0097 12.7135 11.6981 12.2058 12.2058C11.6981 12.7135 11.0097 12.9991 10.2917 13L9.20833 13C9.06467 13 8.9269 12.9429 8.82532 12.8414C8.72373 12.7398 8.66667 12.602 8.66667 12.4583C8.66667 12.3147 8.72373 12.1769 8.82532 12.0753C8.9269 11.9737 9.06467 11.9167 9.20833 11.9167Z" fill="#5C459B"/>
</g>
<defs>
<clipPath id="clip0_1262_125">
<rect width="13" height="13" fill="white" transform="matrix(-1 -8.74228e-08 -8.74228e-08 1 13 0)"/>
</clipPath>
</defs>
</svg>
