<svg width="20" height="20" viewBox="0 0 20 20" fill="none" xmlns="http://www.w3.org/2000/svg">
<g clip-path="url(#clip0_1217_38)">
<path d="M4.03636 13.3267L4.03628 13.3266C2.40885 11.3712 1.31154 9.53877 0.58397 7.56396C0.109879 6.28722 -0.0745056 5.22711 0.00497866 4.22728L0.00499547 4.22707C0.0722982 3.42365 0.396591 2.72884 0.968492 2.15694L2.51843 0.606999L2.51928 0.606153L2.51929 0.606163C2.97042 0.176114 3.48791 -0.05 4.02913 -0.05C4.57419 -0.05 5.0876 0.175885 5.52239 0.602008C5.80507 0.863933 6.09162 1.15466 6.36505 1.43637L6.37638 1.44804C6.51332 1.58901 6.64637 1.72598 6.78723 1.86684L8.02205 3.10166C8.02207 3.10167 8.02208 3.10169 8.0221 3.10171C8.48134 3.55675 8.7248 4.08697 8.7248 4.62909C8.7248 5.17141 8.47703 5.70155 8.02221 6.15637C7.89369 6.28489 7.76551 6.41307 7.64152 6.54119L7.64135 6.54137C7.29707 6.89375 6.94005 7.25494 6.55926 7.601C6.83394 8.22675 7.22553 8.84413 7.80621 9.57915C8.97612 11.0136 10.1988 12.1286 11.5445 12.9831L11.5446 12.9831C11.6789 13.0686 11.8301 13.1463 11.996 13.2292L11.9965 13.2295C12.1181 13.2903 12.248 13.3552 12.3755 13.4271L13.8321 11.9704C14.2749 11.5277 14.7969 11.2886 15.3428 11.2886C15.8888 11.2886 16.4067 11.5276 16.8373 11.9749C16.8374 11.975 16.8375 11.9752 16.8376 11.9753L19.3276 14.4653C19.7811 14.9187 20.0105 15.4458 20.0116 15.9795C20.0126 16.513 19.7854 17.0472 19.3367 17.5149C19.1453 17.7146 18.9459 17.9099 18.7508 18.0966C18.7508 18.0966 18.7508 18.0966 18.7508 18.0966L4.03636 13.3267ZM4.03636 13.3267C6.01348 15.6901 8.39373 17.5512 11.1105 18.868L11.1109 18.8682M4.03636 13.3267L11.1109 18.8682M11.1109 18.8682C12.144 19.3578 13.5311 19.9415 15.0785 20.0416L15.0796 20.0417M11.1109 18.8682L15.0796 20.0417M15.0796 20.0417L15.0914 20.0422M15.0796 20.0417L15.0914 20.0422M4.73938 1.41097L4.73943 1.41093C4.50993 1.1774 4.26512 1.06533 4.02913 1.06533C3.78843 1.06533 3.53516 1.17791 3.30163 1.40326L1.7603 2.9446C1.37089 3.334 1.16457 3.78297 1.11583 4.32251C1.05035 5.14574 1.20977 6.05392 1.63501 7.18926L1.63507 7.18942C2.32065 9.03968 3.35759 10.7671 4.90048 12.6244C6.77331 14.8652 9.0304 16.6303 11.6016 17.8745C12.5495 18.3257 13.8062 18.8525 15.1554 18.9389C15.2259 18.9431 15.299 18.9471 15.3677 18.9471C16.0876 18.9471 16.6416 18.7123 17.1081 18.2098C17.3682 17.8986 17.6541 17.621 17.9288 17.3543C17.9449 17.3388 17.9609 17.3232 17.9769 17.3077L17.9771 17.3074C18.1718 17.1211 18.3533 16.9437 18.5263 16.7583L18.5268 16.7577C18.7741 16.5003 18.8933 16.2457 18.8952 15.9999C18.8971 15.7546 18.7823 15.5077 18.54 15.2654L16.041 12.7706L16.0397 12.7692L16.0397 12.7692C15.8817 12.599 15.6371 12.4163 15.3428 12.4163C15.1032 12.4163 14.8541 12.5362 14.6198 12.7705L13.0699 14.3205C12.9985 14.3919 12.7703 14.6169 12.417 14.6169C12.2757 14.6169 12.1354 14.5815 11.9924 14.5079C11.9923 14.5079 11.9922 14.5078 11.9921 14.5078L12.015 14.4633C12.0067 14.4592 11.9995 14.455 11.9922 14.4509C11.985 14.4467 11.9777 14.4426 11.9694 14.4385L4.73938 1.41097ZM4.73938 1.41097L4.74113 1.41258C4.98093 1.63448 5.20829 1.86567 5.44848 2.10989C5.48528 2.14732 5.52239 2.18505 5.55988 2.22309C5.63045 2.29574 5.70203 2.36835 5.77398 2.44134L5.77545 2.44283C5.84699 2.5154 5.9189 2.58834 5.99079 2.66229L5.99079 2.66229L5.99128 2.66279L7.22626 3.89777C7.47794 4.14945 7.60117 4.39857 7.60117 4.63738C7.60117 4.87619 7.47794 5.12531 7.22626 5.37699C7.16193 5.44132 7.09763 5.50666 7.03349 5.57184L7.03327 5.57206C6.96901 5.63735 6.90492 5.70248 6.84085 5.76655L6.84066 5.76674C6.81163 5.79609 6.78274 5.82531 6.75398 5.8544C6.40057 6.21192 6.06577 6.55061 5.69926 6.87512L5.69919 6.87505L5.69705 6.8772L5.69554 6.87871L5.69412 6.88013L5.69277 6.88148L5.69148 6.88277L5.68903 6.88522L5.68669 6.88756L5.68552 6.88873L5.68493 6.88932L5.68478 6.88947L5.68463 6.88961L5.68434 6.88991L5.68313 6.89111L5.68189 6.89235L5.6806 6.89364L5.67926 6.89499L5.67632 6.89792C5.49722 7.07703 5.41903 7.2549 5.39838 7.42293C5.37788 7.58968 5.41467 7.74201 5.45704 7.86911C5.45957 7.87672 5.4621 7.88304 5.46413 7.8881L5.46426 7.88844C5.46636 7.89368 5.46792 7.89761 5.46947 7.90226L5.46934 7.9023L5.47074 7.90566C5.79204 8.6776 6.23817 9.41095 6.93239 10.2839L6.93268 10.2843C8.17882 11.8212 9.49226 13.0144 10.9395 13.9335M4.73938 1.41097L10.9395 13.9335M10.9395 13.9335C10.9394 13.9334 10.9393 13.9334 10.9393 13.9333L10.9665 13.8915L10.9397 13.9336C10.9397 13.9336 10.9396 13.9335 10.9395 13.9335ZM15.0914 20.0422C15.1823 20.0461 15.271 20.05 15.3636 20.05M15.0914 20.0422L15.3636 20.05M15.3636 20.05C16.4085 20.05 17.2506 19.6884 17.9358 18.9448M15.3636 20.05L17.9358 18.9448M17.9358 18.9448C17.9393 18.9413 17.9498 18.9309 17.9577 18.9178L17.9358 18.9448Z" fill="#5C459B" stroke="#5C459B" stroke-width="0.1"/>
</g>
<defs>
<clipPath id="clip0_1217_38">
<rect width="20" height="20" fill="white"/>
</clipPath>
</defs>
</svg>
