<svg width="912" height="910" viewBox="0 0 912 910" fill="none" xmlns="http://www.w3.org/2000/svg">
<g opacity="0.35">
<path opacity="0.0375" d="M676.384 447.704C803.855 724.074 275.038 642.606 391.981 464.649C450.167 376.103 262.555 279.269 342.531 207.846C422.437 136.402 480.02 207.017 580.673 233.506C706.461 266.076 642.63 374.524 676.384 447.704Z" stroke="#7945F3" stroke-width="1.3728" stroke-miterlimit="10"/>
<path opacity="0.075" d="M681.737 445.475C793.057 713.022 288.98 648.717 388.74 468.013C437.91 378.947 268.396 268.6 350.121 203.979C431.705 139.319 493.358 202.29 586.181 233.877C701.949 273.271 651.413 372.593 681.737 445.475Z" stroke="#7741F2" stroke-width="1.3728" stroke-miterlimit="10"/>
<path opacity="0.1125" d="M687.098 443.247C782.6 701.547 302.936 655.156 385.507 471.378C425.686 381.95 274.244 257.932 357.719 200.114C440.983 142.236 506.728 197.342 591.697 234.249C697.473 280.191 660.218 370.544 687.098 443.247Z" stroke="#753CF1" stroke-width="1.3728" stroke-miterlimit="10"/>
<path opacity="0.15" d="M692.456 441.019C772.549 689.643 316.983 661.937 382.272 474.743C413.531 385.117 280.09 247.263 365.315 196.249C450.258 145.153 520.067 192.363 597.211 234.62C692.962 287.07 669.053 368.373 692.456 441.019Z" stroke="#7238F0" stroke-width="1.3728" stroke-miterlimit="10"/>
<path opacity="0.1875" d="M697.81 438.791C762.979 677.312 331.22 669.037 379.032 478.107C401.487 388.437 285.931 236.595 372.905 192.383C459.527 148.07 533.38 187.338 602.72 234.992C688.422 293.89 677.942 366.075 697.81 438.791Z" stroke="#7033EF" stroke-width="1.3728" stroke-miterlimit="10"/>
<path opacity="0.225" d="M703.162 436.562C753.971 664.575 345.746 676.403 375.79 481.472C389.598 391.883 291.771 225.926 380.495 188.517C468.796 150.987 546.684 182.255 608.227 235.362C683.872 300.639 686.915 363.653 703.162 436.562Z" stroke="#6E2EEE" stroke-width="1.3728" stroke-miterlimit="10"/>
<path opacity="0.2625" d="M708.52 434.333C745.604 651.477 360.653 683.946 372.555 484.836C377.899 395.41 297.616 215.258 388.089 184.652C478.07 153.904 560.007 177.11 613.74 235.734C679.346 307.31 696.016 361.117 708.52 434.333Z" stroke="#8C2AED" stroke-width="1.3728" stroke-miterlimit="10"/>
<path opacity="0.3" d="M713.872 432.106C737.928 638.079 375.974 691.555 369.313 488.202C366.389 398.966 303.456 204.59 395.679 180.787C487.339 156.822 573.359 171.906 619.248 236.106C674.86 313.909 705.273 358.481 713.872 432.106Z" stroke="#9425EC" stroke-width="1.3728" stroke-miterlimit="10"/>
<path opacity="0.3375" d="M719.231 429.877C731.001 624.463 391.731 699.108 366.078 491.565C355.069 402.498 309.302 193.92 403.275 176.921C496.614 159.738 586.777 166.658 624.762 236.477C670.45 320.453 714.748 355.769 719.231 429.877Z" stroke="#9220EB" stroke-width="1.3728" stroke-miterlimit="10"/>
<path opacity="0.375" d="M724.583 427.65C724.832 610.743 407.872 706.505 362.836 494.931C343.899 405.963 315.142 183.253 410.864 173.056C505.883 162.657 600.256 161.39 630.269 236.85C666.115 326.975 724.481 353.017 724.583 427.65Z" stroke="#8F1CEA" stroke-width="1.3728" stroke-miterlimit="10"/>
<path opacity="0.4125" d="M729.941 425.42C719.43 597.046 424.347 713.666 359.601 498.295C332.855 409.328 320.987 172.584 418.459 169.19C515.157 165.573 613.812 156.125 635.783 237.22C661.868 333.5 734.543 350.275 729.941 425.42Z" stroke="#6717E9" stroke-width="1.3728" stroke-miterlimit="10"/>
<path opacity="0.45" d="M735.298 423.191C714.748 583.53 441.064 720.547 356.364 501.659C321.893 412.578 326.832 161.915 426.053 165.324C524.43 168.49 627.423 150.884 641.294 237.591C657.688 340.057 744.985 347.612 735.298 423.191Z" stroke="#7E13E8" stroke-width="1.3728" stroke-miterlimit="10"/>
<path opacity="0.4875" d="M740.654 420.964C710.709 570.367 457.941 727.138 353.126 505.024C310.978 415.706 332.676 151.247 433.647 161.459C533.703 171.408 641.077 145.681 646.806 237.963C653.555 346.658 755.857 345.115 740.654 420.964Z" stroke="#950EE7" stroke-width="1.3728" stroke-miterlimit="10"/>
<path opacity="0.525" d="M746.007 418.735C707.193 557.732 474.9 733.445 349.886 508.388C300.076 418.72 338.516 140.578 441.237 157.593C542.972 174.325 654.754 140.517 652.315 238.335C649.448 353.309 767.189 342.881 746.007 418.735Z" stroke="#8509E6" stroke-width="1.3728" stroke-miterlimit="10"/>
<path opacity="0.5625" d="M751.361 416.507C704.042 545.808 491.885 739.501 346.646 511.753C289.172 421.629 344.358 129.91 448.828 153.728C552.243 177.242 668.445 135.392 657.824 238.707C645.355 360.005 778.986 341.023 751.361 416.507Z" stroke="#7505E5" stroke-width="1.3728" stroke-miterlimit="10"/>
<path opacity="0.6" d="M756.719 414.279C701.055 534.746 508.853 745.336 343.411 515.118C278.252 424.448 350.203 119.241 456.424 149.862C561.517 180.159 682.141 130.3 663.338 239.078C641.269 366.743 791.205 339.644 756.719 414.279Z" stroke="#8000E4" stroke-width="1.3728" stroke-miterlimit="10"/>
<path d="M386.45 572.884C-51.7673 722.151 291.243 16.2749 476.33 213.481C569.014 312.233 759.794 56.2773 835.27 168.076C910.746 279.875 784.525 338.804 714.838 476.99C627.81 649.565 499.688 534.312 386.45 572.884Z" stroke="#6A1CE9" stroke-width="1.3728" stroke-miterlimit="10"/>
<path opacity="0.9375" d="M387.408 580.126C-33.852 709.384 277.926 33.5471 473.037 208.836C569.973 295.925 771.928 65.2628 837.58 178.438C903.285 291.524 786.273 356.962 712.239 484.093C620.434 643.043 498.615 546.004 387.408 580.126Z" stroke="#6A1CE9" stroke-width="1.3728" stroke-miterlimit="10"/>
<path opacity="0.875" d="M388.366 587.37C-15.5413 696.963 264.119 50.6541 469.742 204.192C570.689 279.569 784.061 74.2483 839.887 188.799C895.822 303.172 787.59 374.832 709.637 491.196C612.521 636.163 497.661 557.715 388.366 587.37Z" stroke="#6A1CE9" stroke-width="1.3728" stroke-miterlimit="10"/>
<path opacity="0.8125" d="M389.32 594.612C3.18321 684.965 249.762 67.7259 466.444 199.547C571.132 263.236 796.191 83.2337 842.193 199.16C888.357 314.821 789.168 392.812 707.032 498.298C604.933 629.422 496.831 569.456 389.32 594.612Z" stroke="#6A1CE9" stroke-width="1.3728" stroke-miterlimit="10"/>
<path opacity="0.75" d="M390.281 601.855C22.3415 673.477 234.852 84.9276 463.152 194.903C571.307 247.002 808.328 92.2186 844.504 209.521C880.898 326.468 790.796 410.777 704.434 505.4C597.408 622.664 496.141 581.248 390.281 601.855Z" stroke="#6A1CE9" stroke-width="1.3728" stroke-miterlimit="10"/>
<path opacity="0.6875" d="M391.237 609.098C41.9201 662.595 219.434 102.431 459.857 190.259C571.234 230.945 820.459 101.205 846.811 219.882C873.434 338.117 792.472 428.736 701.831 512.503C589.945 615.902 495.584 593.118 391.237 609.098Z" stroke="#6A1CE9" stroke-width="1.3728" stroke-miterlimit="10"/>
<path opacity="0.625" d="M392.196 616.342C61.9111 652.416 203.627 120.387 456.563 185.615C570.977 215.12 832.593 110.191 849.12 230.244C865.973 349.766 794.211 446.707 699.23 519.606C582.558 609.155 495.166 605.094 392.196 616.342Z" stroke="#6A1CE9" stroke-width="1.3728" stroke-miterlimit="10"/>
<path opacity="0.5625" d="M393.153 623.584C82.2725 643.041 187.583 138.892 453.268 180.97C570.61 199.553 844.726 119.175 851.429 240.605C858.51 361.415 796.009 464.704 696.629 526.708C575.245 602.442 494.875 617.217 393.153 623.584Z" stroke="#6A1CE9" stroke-width="1.3728" stroke-miterlimit="10"/>
<path opacity="0.5" d="M394.111 630.828C102.945 634.566 171.47 157.986 449.975 176.326C570.214 184.245 856.86 128.162 853.738 250.968C851.049 373.064 797.861 482.749 694.029 533.811C567.999 595.791 494.7 629.536 394.111 630.828Z" stroke="#6A1CE9" stroke-width="1.3728" stroke-miterlimit="10"/>
<path opacity="0.4375" d="M395.067 638.071C123.832 627.071 155.437 177.637 446.678 171.682C569.853 169.164 868.99 137.148 856.044 261.329C843.585 384.712 799.749 500.858 691.425 540.914C560.796 589.218 494.606 642.107 395.067 638.071Z" stroke="#6A1CE9" stroke-width="1.3728" stroke-miterlimit="10"/>
<path opacity="0.375" d="M396.023 645.313C144.814 620.613 139.605 197.774 443.382 167.037C569.581 154.269 881.123 146.133 858.352 271.689C836.122 396.36 801.655 519.043 688.823 548.017C553.616 582.735 494.554 655.001 396.023 645.313Z" stroke="#6A1CE9" stroke-width="1.3728" stroke-miterlimit="10"/>
<path opacity="0.3125" d="M396.98 652.556C165.723 615.217 124.046 218.3 440.087 162.393C569.426 139.513 893.255 155.118 860.659 282.051C828.659 408.008 803.556 537.305 686.221 555.119C546.429 576.343 494.474 668.298 396.98 652.556Z" stroke="#6A1CE9" stroke-width="1.3728" stroke-miterlimit="10"/>
<path opacity="0.25" d="M397.941 659.799C186.359 610.857 108.796 239.111 436.795 157.748C569.406 124.853 905.391 164.103 862.971 292.412C821.2 419.656 805.435 555.635 683.622 562.221C539.214 570.029 494.275 682.082 397.941 659.799Z" stroke="#6A1CE9" stroke-width="1.3728" stroke-miterlimit="10"/>
<path opacity="0.1875" d="M398.895 667.042C206.465 607.443 93.8472 260.116 433.498 153.104C569.509 110.252 917.521 173.089 865.276 302.773C813.734 431.304 807.265 574.02 681.018 569.323C531.94 563.778 493.812 696.439 398.895 667.042Z" stroke="#6A1CE9" stroke-width="1.3728" stroke-miterlimit="10"/>
<path opacity="0.125" d="M399.852 674.285C225.773 604.803 79.192 281.233 430.202 148.46C569.736 95.6794 929.653 182.075 867.583 313.135C806.27 442.954 809.049 592.443 678.415 576.427C524.611 557.57 492.927 711.435 399.852 674.285Z" stroke="#6A1CE9" stroke-width="1.3728" stroke-miterlimit="10"/>
<path opacity="0.0625" d="M400.816 681.527C243.995 602.674 64.8057 302.405 426.914 143.815C570.082 81.1133 941.793 191.06 869.898 323.496C798.816 454.601 810.79 610.886 675.821 583.529C517.228 551.384 491.426 727.088 400.816 681.527Z" stroke="#6A1CE9" stroke-width="1.3728" stroke-miterlimit="10"/>
<path opacity="0.025" d="M296.179 339.53C15.8321 -16.3689 801.51 -45.5674 697.137 237.902C645.225 378.892 947.942 464.512 858.782 587.285C769.729 710.068 662.341 626.01 508.941 616.071C317.422 604.405 370.338 433.673 296.179 339.53Z" stroke="#6823BF" stroke-width="1.3728" stroke-miterlimit="10"/>
<path opacity="0.05" d="M289.303 344.141C35.0656 -3.90288 779.418 -50.4908 700.579 232.263C661.762 371.481 943.356 481.183 849.285 594.821C755.428 708.478 644.948 636.336 500.923 617.051C321.36 593.008 358.408 438.743 289.303 344.141Z" stroke="#6823BF" stroke-width="1.3728" stroke-miterlimit="10"/>
<path opacity="0.075" d="M282.424 348.752C53.988 9.23652 757.187 -55.9083 704.017 226.623C678.194 363.837 938.765 497.853 839.782 602.356C741.123 706.887 627.577 646.98 492.9 618.03C325.327 582.01 346.492 443.975 282.424 348.752Z" stroke="#6823BF" stroke-width="1.3728" stroke-miterlimit="10"/>
<path opacity="0.1" d="M275.55 353.365C72.5114 23.0897 734.687 -61.794 707.46 220.986C694.463 355.979 934.181 514.527 830.287 609.894C726.824 705.299 610.257 657.663 484.884 619.011C329.353 571.062 334.58 449.386 275.55 353.365Z" stroke="#6823BF" stroke-width="1.3728" stroke-miterlimit="10"/>
<path opacity="0.125" d="M268.678 357.977C90.5232 37.6805 711.771 -68.0763 710.905 215.346C710.5 347.938 929.598 531.198 820.793 617.429C712.528 703.708 592.979 668.402 476.87 619.991C333.426 560.185 322.634 454.984 268.678 357.977Z" stroke="#6823BF" stroke-width="1.3728" stroke-miterlimit="10"/>
<path opacity="0.15" d="M261.804 362.588C107.908 53.0148 688.318 -74.6231 714.349 209.707C726.258 339.78 925.014 547.869 811.298 624.966C698.229 702.118 575.723 679.214 468.854 620.972C337.526 549.4 310.617 460.778 261.804 362.588Z" stroke="#6823BF" stroke-width="1.3728" stroke-miterlimit="10"/>
<path opacity="0.175" d="M254.929 367.201C124.546 69.072 664.251 -81.2651 717.791 204.069C741.717 331.582 920.428 564.542 801.801 632.503C683.929 700.53 558.466 690.113 460.837 621.953C341.623 538.724 298.476 466.776 254.929 367.201Z" stroke="#6823BF" stroke-width="1.3728" stroke-miterlimit="10"/>
<path opacity="0.2" d="M248.054 371.811C140.327 85.7944 639.561 -87.8257 721.233 198.429C756.895 323.42 915.843 581.212 792.304 640.038C669.628 698.939 541.178 701.097 452.819 622.932C345.682 528.155 286.154 472.967 248.054 371.811Z" stroke="#6823BF" stroke-width="1.3728" stroke-miterlimit="10"/>
<path opacity="0.225" d="M241.183 376.423C155.152 103.094 614.299 -94.1367 724.68 192.791C771.834 315.366 911.261 597.885 782.811 647.575C655.333 697.35 523.834 712.16 444.806 623.913C349.671 517.68 273.576 479.341 241.183 376.423Z" stroke="#6823BF" stroke-width="1.3728" stroke-miterlimit="10"/>
<path opacity="0.25" d="M234.301 381.035C168.924 120.832 588.55 -100.077 728.116 187.152C786.576 307.465 906.669 614.556 773.309 655.111C641.026 695.76 506.395 723.273 436.782 624.894C353.549 507.266 260.641 485.869 234.301 381.035Z" stroke="#6823BF" stroke-width="1.3728" stroke-miterlimit="10"/>
<path opacity="0.275" d="M227.432 385.647C181.613 138.828 562.46 -105.575 731.564 181.513C801.208 299.746 902.09 631.228 763.818 662.648C626.732 694.171 488.876 734.408 428.771 625.874C357.331 496.873 247.269 492.502 227.432 385.647Z" stroke="#6823BF" stroke-width="1.3728" stroke-miterlimit="10"/>
<path opacity="0.3" d="M220.556 390.258C193.184 156.852 536.138 -110.61 735.005 175.873C815.763 292.213 897.503 647.9 754.319 670.183C612.431 692.581 471.261 745.531 420.752 626.854C361.003 486.467 233.328 499.166 220.556 390.258Z" stroke="#6823BF" stroke-width="1.3728" stroke-miterlimit="10"/>
<path opacity="0.325" d="M213.682 394.87C203.684 174.629 509.708 -115.202 738.448 170.234C830.302 284.856 892.918 664.571 744.823 677.719C598.131 690.99 453.577 756.623 412.735 627.834C364.592 476.02 218.715 505.758 213.682 394.87Z" stroke="#6823BF" stroke-width="1.3728" stroke-miterlimit="10"/>
<path opacity="0.35" d="M206.802 399.482C213.202 191.847 483.256 -119.393 741.885 164.596C844.852 277.659 888.327 681.243 735.321 685.256C583.826 689.402 435.833 767.672 404.713 628.815C368.116 465.521 203.329 512.142 206.802 399.482Z" stroke="#6823BF" stroke-width="1.3728" stroke-miterlimit="10"/>
<path opacity="0.375" d="M199.932 404.094C221.923 208.169 456.865 -123.244 745.332 158.957C859.451 270.596 883.746 697.915 725.83 692.793C569.531 687.812 418.065 778.672 396.701 629.795C371.61 454.961 187.13 518.146 199.932 404.094Z" stroke="#6823BF" stroke-width="1.3728" stroke-miterlimit="10"/>
<path opacity="0.4" d="M193.056 408.705C230.071 223.269 430.563 -126.813 748.774 153.318C874.099 263.646 879.16 714.586 716.332 700.328C555.23 686.222 400.274 789.625 388.682 630.775C375.078 444.344 170.123 523.591 193.056 408.705Z" stroke="#6823BF" stroke-width="1.3728" stroke-miterlimit="10"/>
</g>
</svg>
