<svg width="1440" height="856" viewBox="0 0 1440 856" fill="none" xmlns="http://www.w3.org/2000/svg">
<path d="M-410 558.766C-159.635 411.064 -17.445 416.742 68.169 461.638C160.152 509.874 196.914 608.671 269.897 599.859C362.162 588.718 366.809 423.163 445.475 409.339C584.451 384.915 729.084 873.669 867.609 853.887C976.265 838.37 984.86 523.726 1102.96 513.939C1183.85 507.235 1222 651.362 1327.1 648.424C1418.76 645.861 1432.71 535.019 1521.36 521.41C1663.38 499.605 1740.86 766.78 1906.13 786.644C1984.34 796.044 2104.35 752.731 2275.97 491.524" stroke="url(#paint0_linear_902_566)" stroke-opacity="0.16" stroke-width="3" stroke-miterlimit="10"/>
<path d="M-404.533 554.294C-155.514 410.728 -14.2382 416.263 70.7578 459.953C162.236 506.798 198.548 602.587 271.016 593.933C362.609 582.992 367.215 422.268 445.644 408.97C583.773 385.355 727.05 862.499 866.093 842.418C975.39 826.614 984.678 519.481 1103.6 509.65C1186.6 502.803 1224.56 640.814 1330.87 637.797C1424.42 635.129 1439.26 531.053 1530.07 517.596C1672.75 496.089 1750.25 755.467 1914.69 775.543C1992.65 785.084 2111.75 743.933 2280.94 491.691" stroke="url(#paint1_linear_902_566)" stroke-opacity="0.16" stroke-width="2.9508" stroke-miterlimit="10"/>
<path d="M-399.066 549.822C-151.393 410.393 -11.0324 415.784 73.3456 458.267C164.319 503.721 200.181 596.501 272.134 588.006C363.054 577.266 367.62 421.372 445.813 408.601C583.095 385.793 725.016 851.33 864.579 830.949C974.517 814.858 984.497 515.236 1104.24 505.362C1189.34 498.372 1227.12 630.267 1334.63 627.17C1430.07 624.397 1445.84 527.308 1538.78 513.782C1682.18 492.913 1759.64 744.154 1923.25 764.441C2000.96 774.124 2119.14 735.134 2285.92 491.858" stroke="url(#paint2_linear_902_566)" stroke-opacity="0.16" stroke-width="2.9016" stroke-miterlimit="10"/>
<path d="M-393.6 545.35C-147.273 410.057 -7.92162 415.499 75.9344 456.581C166.3 500.853 201.814 590.416 273.252 582.08C363.5 571.54 368.05 420.635 445.982 408.232C582.46 386.511 722.981 840.161 863.063 819.48C973.642 803.102 984.315 510.99 1104.89 501.073C1192.09 493.94 1229.68 619.718 1338.4 616.543C1435.73 613.664 1452.4 523.445 1547.49 509.968C1691.57 489.548 1769.04 732.841 1931.81 753.339C2009.27 763.164 2126.54 726.335 2290.9 492.024" stroke="url(#paint3_linear_902_566)" stroke-opacity="0.16" stroke-width="2.8525" stroke-miterlimit="10"/>
<path d="M-388.133 540.878C-143.152 409.722 -4.7448 415.084 78.5232 454.896C168.353 497.846 203.448 584.33 274.371 576.153C363.947 565.813 368.463 419.79 446.152 407.863C581.795 387.038 720.948 828.991 861.549 808.011C972.769 791.346 984.134 506.745 1105.53 496.785C1194.83 489.509 1232.24 609.171 1342.17 605.916C1441.38 602.932 1458.97 519.579 1556.21 506.155C1700.96 486.172 1778.43 721.529 1940.37 742.239C2017.58 752.205 2133.94 717.537 2295.87 492.192" stroke="url(#paint4_linear_902_566)" stroke-opacity="0.16" stroke-width="2.8033" stroke-miterlimit="10"/>
<path d="M-382.664 536.406C-139.029 409.386 -1.56403 414.668 81.113 453.21C170.409 494.838 205.083 578.245 275.492 570.226C364.395 560.087 368.877 418.944 446.323 407.494C581.13 387.563 718.916 817.822 860.037 796.542C971.897 779.59 983.956 502.5 1106.18 492.496C1197.58 485.077 1234.8 598.623 1345.94 595.289C1447.04 592.2 1465.53 515.707 1564.92 502.341C1710.35 482.783 1787.83 710.216 1948.93 731.137C2025.89 741.245 2141.34 708.738 2300.85 492.359" stroke="url(#paint5_linear_902_566)" stroke-opacity="0.16" stroke-width="2.7541" stroke-miterlimit="10"/>
<path d="M-377.197 531.934C-134.908 409.051 1.61772 414.252 83.7017 451.525C172.467 491.831 206.717 572.16 276.611 564.3C364.842 554.361 369.288 418.098 446.493 407.125C580.461 388.086 716.882 806.652 858.522 785.073C971.023 767.834 983.774 498.255 1106.82 488.208C1200.33 480.646 1237.36 588.076 1349.7 584.662C1452.7 581.468 1472.08 511.832 1573.63 498.527C1719.73 479.384 1797.22 698.903 1957.49 720.035C2034.2 730.285 2148.73 699.939 2305.83 492.525" stroke="url(#paint6_linear_902_566)" stroke-opacity="0.16" stroke-width="2.7049" stroke-miterlimit="10"/>
<path d="M-371.73 527.463C-130.787 408.716 4.79953 413.837 86.2905 449.84C174.526 488.823 208.351 566.075 277.73 558.374C365.289 548.635 369.699 417.25 446.663 406.757C579.792 388.606 714.849 795.484 857.008 773.605C970.15 756.079 983.594 494.011 1107.47 483.92C1203.07 476.215 1239.92 577.528 1353.47 574.036C1458.35 570.736 1478.64 507.953 1582.35 494.714C1729.12 475.977 1806.62 687.591 1966.05 708.935C2042.51 719.326 2156.13 691.142 2310.81 492.693" stroke="url(#paint7_linear_902_566)" stroke-opacity="0.16" stroke-width="2.6557" stroke-miterlimit="10"/>
<path d="M-366.264 522.991C-126.667 408.381 7.98436 413.42 88.8784 448.155C176.585 485.815 209.983 559.99 278.847 552.448C365.734 542.91 370.107 416.401 446.831 406.388C579.119 389.124 712.813 784.314 855.491 762.136C969.274 744.323 983.411 489.765 1108.11 479.632C1205.82 471.784 1242.48 566.981 1357.24 563.41C1464.01 560.005 1485.2 504.069 1591.06 490.901C1738.5 472.56 1816.01 676.279 1974.61 697.834C2050.82 708.367 2163.53 682.344 2315.78 492.861" stroke="url(#paint8_linear_902_566)" stroke-opacity="0.16" stroke-width="2.6066" stroke-miterlimit="10"/>
<path d="M-360.797 518.519C-122.546 408.045 11.1701 413.002 91.4671 446.469C178.648 482.805 211.617 553.904 279.966 546.521C366.18 537.183 370.516 415.55 447.001 406.019C578.447 389.638 710.78 773.144 853.977 750.667C968.401 732.567 983.23 485.52 1108.75 475.343C1208.56 467.352 1245.04 556.433 1361.01 552.782C1469.66 549.272 1491.75 500.18 1599.77 487.086C1747.88 469.132 1825.4 664.965 1983.17 686.731C2059.13 697.406 2170.92 673.544 2320.76 493.026" stroke="url(#paint9_linear_902_566)" stroke-opacity="0.16" stroke-width="2.5574" stroke-miterlimit="10"/>
<path d="M-355.33 514.047C-118.425 407.709 14.3589 412.583 94.0559 444.783C180.713 479.795 213.251 547.819 281.086 540.594C366.628 531.456 370.925 414.698 447.171 405.65C577.774 390.15 708.747 761.975 852.463 739.199C967.528 720.811 983.05 481.276 1109.4 471.056C1211.31 462.922 1247.6 545.887 1364.77 542.157C1475.32 538.541 1498.31 496.289 1608.48 483.274C1757.26 465.699 1834.8 653.654 1991.73 675.632C2067.44 686.448 2178.32 664.748 2325.74 493.195" stroke="url(#paint10_linear_902_566)" stroke-opacity="0.16" stroke-width="2.5082" stroke-miterlimit="10"/>
<path d="M-349.863 509.575C-114.304 407.374 17.5487 412.164 96.6447 443.098C182.78 476.785 214.885 541.734 282.205 534.668C367.075 525.731 371.332 413.846 447.341 405.281C577.1 390.66 706.713 750.805 850.949 727.73C966.654 709.055 982.869 477.031 1110.04 466.767C1214.06 458.49 1250.16 535.338 1368.54 531.529C1480.97 527.808 1504.86 492.391 1617.19 479.459C1766.63 462.255 1844.19 642.34 2000.29 664.529C2075.75 675.487 2185.72 655.948 2330.71 493.361" stroke="url(#paint11_linear_902_566)" stroke-opacity="0.16" stroke-width="2.459" stroke-miterlimit="10"/>
<path d="M-344.396 505.103C-110.183 407.039 20.7415 411.744 99.2325 441.413C184.849 473.774 216.518 535.648 283.323 528.742C367.52 520.005 371.738 412.992 447.51 404.913C576.424 391.167 704.678 739.638 849.433 716.263C965.779 697.301 982.688 472.787 1110.69 462.481C1216.8 454.061 1252.72 524.792 1372.31 520.904C1486.63 517.078 1511.41 488.493 1625.91 475.648C1776.01 458.808 1853.59 631.029 2008.85 653.429C2084.06 664.529 2193.12 647.15 2335.69 493.529" stroke="url(#paint12_linear_902_566)" stroke-opacity="0.16" stroke-width="2.4098" stroke-miterlimit="10"/>
<path d="M-338.93 500.631C-106.063 406.703 23.9353 411.323 101.821 439.727C186.92 470.762 218.151 529.563 284.441 522.816C367.966 514.28 372.143 412.137 447.679 404.545C575.746 391.672 702.645 728.468 847.919 704.794C964.906 685.545 982.506 468.542 1111.33 458.192C1219.55 449.629 1255.28 514.245 1376.08 510.277C1492.28 506.345 1517.96 484.587 1634.62 471.833C1785.38 455.35 1862.98 619.716 2017.41 642.328C2092.37 653.569 2200.51 638.352 2340.67 493.696" stroke="url(#paint13_linear_902_566)" stroke-opacity="0.16" stroke-width="2.3607" stroke-miterlimit="10"/>
<path d="M-333.463 496.159C-101.942 406.368 27.1311 410.9 104.409 438.041C188.993 467.748 219.784 523.478 285.56 516.889C368.413 508.553 372.549 411.28 447.848 404.175C575.067 392.172 700.611 717.298 846.404 693.324C964.032 673.788 982.325 464.296 1111.98 453.903C1222.3 445.197 1257.84 503.696 1379.84 499.65C1497.94 495.613 1524.52 480.678 1643.33 468.019C1794.76 451.886 1872.38 608.403 2025.97 631.226C2100.68 642.609 2207.91 629.553 2345.64 493.863" stroke="url(#paint14_linear_902_566)" stroke-opacity="0.16" stroke-width="2.3115" stroke-miterlimit="10"/>
<path d="M-327.994 491.687C-97.8191 406.033 30.3319 410.476 107 436.356C191.071 464.735 221.42 517.393 286.681 510.963C368.862 502.827 372.956 410.422 448.02 403.807C574.391 392.671 698.579 706.129 844.892 681.856C963.161 662.033 982.146 460.052 1112.62 449.615C1225.04 440.766 1260.4 493.149 1383.61 489.024C1503.6 484.882 1531.07 476.765 1652.05 464.206C1804.13 448.417 1881.77 597.091 2034.53 620.125C2108.99 631.65 2215.31 620.755 2350.62 494.03" stroke="url(#paint15_linear_902_566)" stroke-opacity="0.16" stroke-width="2.2623" stroke-miterlimit="10"/>
<path d="M-322.527 487.215C-93.6983 405.697 33.5327 410.051 109.589 434.67C193.15 461.719 223.054 511.307 287.8 505.036C369.308 497.101 373.36 409.561 448.19 403.437C573.711 393.164 696.546 694.959 843.378 670.386C962.287 650.276 981.966 455.805 1113.27 445.326C1227.79 436.334 1262.96 482.601 1387.38 478.396C1509.25 474.149 1537.62 472.847 1660.76 460.391C1813.5 444.94 1891.22 585.467 2043.09 609.023C2117.32 620.538 2222.71 611.956 2355.6 494.196" stroke="url(#paint16_linear_902_566)" stroke-opacity="0.16" stroke-width="2.2131" stroke-miterlimit="10"/>
<path d="M-317.061 482.742C-89.5775 405.361 36.7345 409.623 112.176 432.984C195.229 458.702 224.686 505.221 288.917 499.109C369.753 491.374 373.762 408.699 448.358 403.068C573.028 393.656 694.511 683.789 841.861 658.917C961.411 638.52 981.782 451.561 1113.91 441.038C1230.53 431.903 1265.52 472.054 1391.15 467.77C1514.91 463.417 1544.17 468.927 1669.47 456.578C1822.88 441.46 1900.61 574.142 2051.65 597.922C2125.64 609.572 2230.1 603.158 2360.58 494.364" stroke="url(#paint17_linear_902_566)" stroke-opacity="0.16" stroke-width="2.1639" stroke-miterlimit="10"/>
<path d="M-311.594 478.271C-85.4568 405.026 39.9393 409.196 114.765 431.299C197.313 455.684 226.32 499.136 290.036 493.183C370.2 485.648 374.165 407.837 448.527 402.7C572.345 394.146 692.476 672.621 840.346 647.449C960.537 626.765 981.601 447.316 1114.55 436.75C1233.28 427.472 1268.07 461.506 1394.91 457.143C1520.56 452.685 1550.72 465.002 1678.18 452.764C1832.25 437.973 1910.01 562.817 2060.2 586.82C2133.95 598.605 2237.5 594.358 2365.55 494.529" stroke="url(#paint18_linear_902_566)" stroke-opacity="0.16" stroke-width="2.1148" stroke-miterlimit="10"/>
<path d="M-306.127 473.799C-81.336 404.691 43.147 408.765 117.354 429.614C199.399 452.664 227.954 493.052 291.156 487.257C370.647 479.923 374.568 406.973 448.698 402.331C571.664 394.632 690.444 661.451 838.833 635.98C959.665 615.009 981.422 443.071 1115.2 432.461C1236.03 423.04 1270.64 450.958 1398.68 446.516C1526.22 441.953 1557.27 461.073 1686.9 448.95C1841.62 434.481 1919.41 551.493 2068.77 575.719C2142.26 587.64 2244.9 585.561 2370.53 494.697" stroke="url(#paint19_linear_902_566)" stroke-opacity="0.16" stroke-width="2.0656" stroke-miterlimit="10"/>
<path d="M-300.66 469.327C-77.2151 404.355 46.3558 408.333 119.942 427.928C201.486 449.642 229.588 486.966 292.274 481.33C371.093 474.196 374.969 406.106 448.867 401.962C570.979 395.114 688.41 650.282 837.318 624.511C958.791 603.253 981.241 438.826 1115.84 428.173C1238.77 418.609 1273.19 440.411 1402.45 435.889C1531.87 431.22 1563.81 457.141 1695.61 445.136C1850.99 430.984 1928.8 540.169 2077.32 564.617C2150.57 576.674 2252.29 576.761 2375.51 494.864" stroke="url(#paint20_linear_902_566)" stroke-opacity="0.16" stroke-width="2.0164" stroke-miterlimit="10"/>
<path d="M-295.193 464.854C-73.0944 404.019 49.5666 407.898 122.531 426.242C203.577 446.618 231.222 480.881 293.393 475.404C371.54 468.47 375.37 405.238 449.037 401.593C570.295 395.593 686.376 639.111 835.804 613.042C957.917 591.497 981.06 434.581 1116.49 423.885C1241.52 414.178 1275.75 429.864 1406.22 425.263C1537.53 420.489 1570.36 453.206 1704.32 441.323C1860.35 427.483 1938.2 528.848 2085.88 553.516C2158.88 565.709 2259.69 567.963 2380.48 495.031" stroke="url(#paint21_linear_902_566)" stroke-opacity="0.16" stroke-width="1.9672" stroke-miterlimit="10"/>
<path d="M-289.727 460.383C-68.9736 403.684 52.7804 407.462 125.119 424.557C205.669 443.592 232.855 474.795 294.511 469.477C371.986 462.744 375.77 404.368 449.206 401.224C569.609 396.069 684.342 627.943 834.289 601.574C957.043 579.742 980.878 430.336 1117.13 419.597C1244.27 409.747 1278.31 419.316 1409.98 414.636C1543.18 409.757 1576.91 449.266 1713.04 437.509C1869.72 423.977 1947.6 517.526 2094.44 542.415C2167.19 554.745 2267.09 559.165 2385.46 495.198" stroke="url(#paint22_linear_902_566)" stroke-opacity="0.16" stroke-width="1.918" stroke-miterlimit="10"/>
<path d="M-284.26 455.911C-64.8528 403.349 55.9952 407.023 127.707 422.872C207.763 440.564 234.488 468.711 295.63 463.551C372.432 457.018 376.17 403.497 449.375 400.856C568.922 396.543 682.308 616.774 832.774 590.106C956.169 567.987 980.697 426.092 1117.77 415.309C1247.01 405.316 1280.87 408.769 1413.75 404.01C1548.84 399.025 1583.46 445.323 1721.75 433.697C1879.09 420.469 1956.99 506.207 2103 531.315C2175.5 543.782 2274.48 550.368 2390.44 495.367" stroke="url(#paint23_linear_902_566)" stroke-opacity="0.16" stroke-width="1.8689" stroke-miterlimit="10"/>
<path d="M-278.793 451.439C-60.732 403.013 59.2131 406.582 130.296 421.186C209.861 437.533 236.122 462.625 296.749 457.624C372.879 451.291 376.57 402.623 449.545 400.486C568.235 397.011 680.275 605.604 831.26 578.636C955.296 556.23 980.516 421.846 1118.42 411.02C1249.76 400.884 1283.43 398.221 1417.52 393.383C1554.5 388.293 1590 441.376 1730.46 429.883C1888.46 416.955 1966.39 494.887 2111.56 520.213C2183.82 532.818 2281.88 541.569 2395.42 495.533" stroke="url(#paint24_linear_902_566)" stroke-opacity="0.16" stroke-width="1.8197" stroke-miterlimit="10"/>
<path d="M-273.324 446.967C-56.6092 402.678 62.4348 406.138 132.887 419.5C211.963 434.499 237.758 456.539 297.87 451.697C373.328 445.565 376.972 401.747 449.717 400.117C567.55 397.477 678.243 594.434 829.747 567.167C954.424 544.473 980.337 417.6 1119.06 406.731C1252.5 396.451 1285.99 387.672 1421.29 382.755C1560.15 377.56 1596.55 437.424 1739.17 426.068C1897.83 413.435 1975.79 483.566 2120.12 509.111C2192.13 521.854 2289.28 532.77 2400.39 495.699" stroke="url(#paint25_linear_902_566)" stroke-opacity="0.16" stroke-width="1.7705" stroke-miterlimit="10"/>
<path d="M-267.857 442.495C-52.4884 402.342 65.6566 405.691 135.476 417.815C214.066 431.462 239.392 450.454 298.989 445.771C373.774 439.839 377.371 400.87 449.887 399.748C566.862 397.939 676.21 583.265 828.233 555.698C953.551 532.717 980.156 413.355 1119.71 402.443C1255.25 392.02 1288.55 377.125 1425.06 372.129C1565.81 366.829 1603.1 433.47 1747.89 422.255C1907.2 409.915 1985.18 472.249 2128.68 498.01C2200.44 510.892 2296.68 523.972 2405.37 495.867" stroke="url(#paint26_linear_902_566)" stroke-opacity="0.16" stroke-width="1.7213" stroke-miterlimit="10"/>
<path d="M-262.391 438.023C-48.3676 402.007 68.8794 405.24 138.063 416.129C216.168 428.422 241.024 444.369 300.106 439.845C374.219 434.114 377.813 402.012 450.054 399.38C566.098 395.153 674.174 572.096 826.716 544.23C952.674 520.962 979.973 409.111 1120.35 398.155C1258 387.59 1291.11 366.578 1428.82 361.502C1571.46 356.096 1609.64 429.512 1756.6 418.441C1916.56 406.389 1994.58 460.932 2137.24 486.908C2208.75 499.929 2304.07 515.172 2410.35 496.033" stroke="url(#paint27_linear_902_566)" stroke-opacity="0.16" stroke-width="1.6721" stroke-miterlimit="10"/>
<path d="M-256.924 433.551C-44.2468 401.671 72.1052 404.786 140.652 414.443C218.275 425.378 242.658 438.284 301.226 433.919C374.667 428.388 378.2 401.159 450.225 399.012C565.432 395.577 672.141 560.928 825.203 532.762C951.802 509.207 979.793 404.866 1121 393.867C1260.74 383.158 1293.67 356.031 1432.59 350.876C1577.12 345.365 1616.19 425.551 1765.31 414.627C1925.93 402.861 2003.98 449.615 2145.8 475.807C2217.06 488.967 2311.47 506.374 2415.32 496.2" stroke="url(#paint28_linear_902_566)" stroke-opacity="0.16" stroke-width="1.623" stroke-miterlimit="10"/>
<path d="M-251.457 429.079C-40.125 401.336 75.332 404.33 143.241 412.758C220.383 422.332 244.292 432.198 302.345 427.992C375.114 422.661 378.584 400.3 450.395 398.642C564.765 396.002 670.108 549.757 823.689 521.292C950.929 497.45 979.613 400.62 1121.64 389.578C1263.49 378.726 1296.23 345.482 1436.36 340.248C1582.77 334.632 1622.73 421.586 1774.02 410.813C1935.3 399.329 2013.37 438.299 2154.36 464.705C2225.37 478.005 2318.87 497.575 2420.3 496.367" stroke="url(#paint29_linear_902_566)" stroke-opacity="0.16" stroke-width="1.5738" stroke-miterlimit="10"/>
<path d="M-245.99 424.607C-36.0042 401 78.5608 403.87 145.829 411.073C222.492 419.282 245.925 426.113 303.463 422.066C375.559 416.936 378.967 399.435 450.564 398.274C564.098 396.434 668.074 538.589 822.174 509.824C950.055 485.695 979.432 396.376 1122.28 385.291C1266.24 374.296 1298.79 334.936 1440.12 329.623C1588.43 323.901 1629.28 417.62 1782.74 407.001C1944.67 395.796 2022.77 426.986 2162.92 453.605C2233.68 467.045 2326.26 488.778 2425.28 496.535" stroke="url(#paint30_linear_902_566)" stroke-opacity="0.16" stroke-width="1.5246" stroke-miterlimit="10"/>
<path d="M-240.523 420.135C-31.8834 400.665 81.7905 403.406 148.418 409.387C224.604 416.227 247.559 420.027 304.582 416.139C376.006 411.209 379.361 396.452 450.733 397.905C563.413 400.198 666.039 527.419 820.659 498.355C949.181 473.939 979.249 392.131 1122.93 381.002C1268.98 369.864 1301.35 324.388 1443.89 318.996C1594.08 313.169 1635.83 413.649 1791.45 403.187C1954.03 392.258 2032.16 415.672 2171.48 442.504C2241.99 456.084 2333.66 479.98 2430.25 496.702" stroke="url(#paint31_linear_902_566)" stroke-opacity="0.16" stroke-width="1.4754" stroke-miterlimit="10"/>
<path d="M-235.057 415.663C-27.7626 400.33 85.0214 402.938 151.006 407.702C226.717 413.168 249.192 413.943 305.701 410.213C376.453 405.483 379.759 395.562 450.903 397.536C562.723 400.639 664.006 516.25 819.145 486.886C948.307 462.183 979.07 387.886 1123.57 376.714C1271.73 365.433 1303.91 313.841 1447.66 308.369C1599.74 302.437 1642.37 409.674 1800.16 399.373C1963.4 388.717 2041.56 404.359 2180.04 431.402C2250.31 445.123 2341.06 471.181 2435.23 496.868" stroke="url(#paint32_linear_902_566)" stroke-opacity="0.16" stroke-width="1.4262" stroke-miterlimit="10"/>
<path d="M-229.59 411.19C-23.6418 399.993 88.2542 402.464 153.594 406.015C228.83 410.104 250.825 407.857 306.819 404.286C376.899 399.757 380.156 394.668 451.072 397.166C562.032 401.074 661.972 505.079 817.629 475.417C947.432 450.427 978.887 383.641 1124.22 372.425C1274.47 361.001 1306.47 303.293 1451.43 297.743C1605.39 291.706 1648.91 405.697 1808.87 395.56C1972.77 385.174 2050.95 393.048 2188.6 420.301C2258.61 434.164 2348.45 462.383 2440.21 497.036" stroke="url(#paint33_linear_902_566)" stroke-opacity="0.16" stroke-width="1.377" stroke-miterlimit="10"/>
<path d="M-224.121 406.719C-19.5191 399.659 91.4889 401.989 156.185 404.331C230.948 407.037 252.461 401.772 307.94 398.36C377.347 394.031 380.556 393.774 451.244 396.798C561.344 401.508 659.94 493.911 816.117 463.949C946.561 438.672 978.709 379.396 1124.86 368.138C1277.22 356.571 1309.03 292.746 1455.2 287.116C1611.05 280.973 1655.46 401.714 1817.59 391.745C1982.13 381.627 2060.35 381.737 2197.16 409.2C2266.93 423.205 2355.85 453.585 2445.19 497.203" stroke="url(#paint34_linear_902_566)" stroke-opacity="0.16" stroke-width="1.3279" stroke-miterlimit="10"/>
<path d="M-218.654 402.248C-15.3983 399.324 94.7417 404.562 158.774 402.646C233.043 400.423 254.095 395.687 309.059 392.434C377.794 388.305 380.954 392.877 451.413 396.43C560.653 401.938 657.906 482.742 814.602 452.481C945.687 426.917 978.527 375.152 1125.51 363.85C1279.97 352.14 1311.59 282.199 1458.96 276.49C1616.71 270.242 1662.01 397.732 1826.3 387.933C1991.5 378.08 2069.74 370.427 2205.72 398.099C2275.24 412.246 2363.25 444.787 2450.16 497.37" stroke="url(#paint35_linear_902_566)" stroke-opacity="0.16" stroke-width="1.2787" stroke-miterlimit="10"/>
<path d="M-213.187 397.776C-11.2775 398.989 98.0335 404.063 161.362 400.961C235.092 397.349 255.728 389.603 310.177 386.508C378.24 382.58 381.351 391.978 451.582 396.062C559.963 402.364 655.872 471.574 813.087 441.013C944.813 415.162 978.346 370.908 1126.15 359.563C1282.71 347.71 1314.15 271.652 1462.73 265.864C1622.36 259.511 1668.55 393.745 1835.01 384.12C2000.87 374.53 2079.14 359.119 2214.28 386.998C2283.55 401.288 2370.64 435.988 2455.14 497.538" stroke="url(#paint36_linear_902_566)" stroke-opacity="0.16" stroke-width="1.2295" stroke-miterlimit="10"/>
<path d="M-207.721 393.304C-7.15671 398.653 101.325 403.549 163.95 399.275C237.141 394.28 257.361 383.517 311.296 380.581C378.686 376.853 381.749 391.075 451.752 395.692C559.273 402.784 653.839 460.403 811.573 429.543C943.94 403.405 978.165 366.662 1126.8 355.273C1285.46 343.277 1316.71 261.103 1466.5 255.236C1628.02 248.777 1675.1 389.753 1843.73 380.305C2010.24 370.976 2088.53 347.809 2222.84 375.896C2291.86 390.33 2378.04 427.189 2460.12 497.704" stroke="url(#paint37_linear_902_566)" stroke-opacity="0.16" stroke-width="1.1803" stroke-miterlimit="10"/>
<path d="M-202.254 388.832C-3.0359 398.318 104.427 400.04 166.539 397.589C239.414 394.714 258.995 377.431 312.415 374.654C379.133 371.126 382.148 390.169 451.922 395.323C558.585 403.201 651.805 449.234 810.059 418.074C943.066 391.649 977.985 362.416 1127.44 350.985C1288.21 338.846 1319.27 250.556 1470.27 244.61C1633.68 238.046 1681.64 385.761 1852.44 376.492C2019.6 367.421 2097.93 336.503 2231.4 364.795C2300.17 379.373 2385.44 418.391 2465.09 497.872" stroke="url(#paint38_linear_902_566)" stroke-opacity="0.16" stroke-width="1.1311" stroke-miterlimit="10"/>
<path d="M-196.787 384.36C1.08488 397.982 107.661 399.541 169.127 395.904C241.53 391.62 260.628 371.346 313.533 368.728C379.579 365.401 382.545 389.262 452.091 394.954C557.895 403.614 649.771 438.064 808.544 406.605C942.192 379.892 977.804 358.171 1128.08 346.696C1290.95 334.414 1321.83 240.008 1474.03 233.982C1639.33 227.313 1688.19 381.763 1861.15 372.677C2028.97 363.862 2107.32 325.195 2239.96 353.692C2308.48 368.414 2392.84 409.591 2470.07 498.037" stroke="url(#paint39_linear_902_566)" stroke-opacity="0.16" stroke-width="1.082" stroke-miterlimit="10"/>
<path d="M-191.32 379.888C5.20569 397.647 110.895 399.037 171.716 394.218C243.647 388.519 262.262 365.26 314.652 362.801C380.026 359.674 382.945 388.351 452.26 394.585C557.206 404.024 647.737 426.895 807.029 395.136C941.318 368.136 977.622 353.926 1128.73 342.408C1293.7 329.983 1324.39 229.46 1477.8 223.356C1644.98 216.581 1694.73 377.764 1869.86 368.864C2038.33 360.303 2116.72 313.89 2248.52 342.592C2316.79 357.459 2400.23 400.794 2475.05 498.205" stroke="url(#paint40_linear_902_566)" stroke-opacity="0.16" stroke-width="1.0328" stroke-miterlimit="10"/>
<path d="M-185.854 375.416C9.32648 397.311 114.129 398.528 174.305 392.533C245.762 385.414 263.896 359.176 315.771 356.875C380.472 353.949 383.344 387.438 452.43 394.217C556.519 404.43 645.702 415.726 805.513 383.668C940.443 356.381 977.44 349.682 1129.37 338.12C1296.44 325.552 1326.95 218.913 1481.57 212.729C1650.64 205.849 1701.28 373.761 1878.58 365.05C2047.7 356.741 2126.11 302.586 2257.08 331.49C2325.1 346.502 2407.63 391.995 2480.02 498.371" stroke="url(#paint41_linear_902_566)" stroke-opacity="0.16" stroke-width="0.9836" stroke-miterlimit="10"/>
<path d="M-180.387 370.944C13.4473 396.976 117.359 398.014 176.892 390.847C247.874 382.302 265.528 353.09 316.889 350.949C380.918 348.223 383.743 386.523 452.599 393.848C555.831 404.831 643.669 404.557 803.999 372.199C939.57 344.625 977.259 345.436 1130.02 333.832C1299.19 321.121 1329.51 208.366 1485.34 202.103C1656.3 195.118 1707.82 369.756 1887.29 361.237C2057.07 353.178 2135.5 291.283 2265.64 320.389C2333.41 335.547 2415.03 383.197 2485 498.539" stroke="url(#paint42_linear_902_566)" stroke-opacity="0.16" stroke-width="0.9344" stroke-miterlimit="10"/>
<path d="M-174.92 366.472C17.5681 396.64 120.59 397.496 179.481 389.162C249.986 379.184 267.162 347.005 318.008 345.023C381.365 342.497 384.144 385.604 452.769 393.48C555.146 405.229 641.636 393.388 802.485 360.731C938.696 332.87 977.079 341.192 1130.66 329.544C1301.94 316.69 1332.07 197.819 1489.1 191.476C1661.95 184.386 1714.37 365.747 1896 357.424C2066.44 349.613 2144.9 279.981 2274.2 309.289C2341.72 324.594 2422.43 374.399 2489.98 498.707" stroke="url(#paint43_linear_902_566)" stroke-opacity="0.16" stroke-width="0.8852" stroke-miterlimit="10"/>
<path d="M-169.451 362C21.6908 396.305 123.82 396.973 182.072 387.476C252.097 376.06 268.798 340.919 319.129 339.096C381.813 336.771 384.548 384.682 452.94 393.11C554.462 405.622 639.603 382.218 800.972 349.262C937.824 321.114 976.899 336.947 1131.3 325.256C1304.68 312.259 1334.63 187.271 1492.87 180.85C1667.61 173.654 1720.91 361.737 1904.72 353.611C2075.8 346.047 2154.29 268.68 2282.76 298.188C2350.03 313.64 2429.82 365.601 2494.96 498.874" stroke="url(#paint44_linear_902_566)" stroke-opacity="0.16" stroke-width="0.8361" stroke-miterlimit="10"/>
<path d="M-163.984 357.528C25.8116 395.969 127.047 396.445 184.66 385.791C254.203 372.931 270.431 334.835 320.247 333.17C382.259 331.045 384.949 383.757 453.109 392.742C553.778 406.012 637.569 371.049 799.457 337.794C936.95 309.359 976.718 332.703 1131.95 320.968C1307.43 307.828 1337.18 176.724 1496.64 170.224C1673.26 162.923 1727.46 357.723 1913.43 349.798C2085.17 342.479 2163.68 257.381 2291.32 287.087C2358.34 302.686 2437.22 356.803 2499.93 499.042" stroke="url(#paint45_linear_902_566)" stroke-opacity="0.16" stroke-width="0.7869" stroke-miterlimit="10"/>
<path d="M-158.518 353.056C29.9324 395.634 130.269 395.912 187.248 384.105C256.306 369.795 272.064 328.749 321.366 327.243C382.706 325.318 385.352 382.829 453.279 392.373C553.096 406.397 635.536 359.88 797.943 326.325C936.077 297.603 976.537 328.458 1132.59 316.68C1310.18 303.397 1339.75 166.177 1500.41 159.597C1678.92 152.191 1734 353.706 1922.14 345.984C2094.54 338.908 2173.08 246.081 2299.88 275.986C2366.65 291.733 2444.62 348.005 2504.91 499.209" stroke="url(#paint46_linear_902_566)" stroke-opacity="0.16" stroke-width="0.7377" stroke-miterlimit="10"/>
<path d="M-153.051 348.583C34.0532 395.298 133.49 395.374 189.837 382.419C258.407 366.653 273.698 322.663 322.485 321.316C383.153 319.592 385.756 381.899 453.449 392.004C552.415 406.778 633.502 348.709 796.429 314.855C935.204 285.846 976.357 324.212 1133.24 312.391C1312.92 298.965 1342.31 155.628 1504.18 148.97C1684.58 141.458 1740.55 349.685 1930.86 342.169C2103.91 335.334 2182.47 234.782 2308.44 264.884C2374.96 280.78 2452.02 339.206 2509.89 499.375" stroke="url(#paint47_linear_902_566)" stroke-opacity="0.16" stroke-width="0.6885" stroke-miterlimit="10"/>
<path d="M-147.584 344.112C38.174 394.963 136.708 394.834 192.425 380.734C260.502 363.506 275.331 316.578 323.603 315.39C383.598 313.866 386.16 380.964 453.617 391.635C551.734 407.155 631.467 337.541 794.913 303.387C934.329 274.091 976.175 319.967 1133.88 308.103C1315.67 294.534 1344.86 145.081 1507.94 138.343C1690.23 130.726 1747.09 345.663 1939.57 338.356C2113.27 331.761 2191.86 223.484 2316.99 253.782C2383.26 269.827 2459.41 330.407 2514.86 499.542" stroke="url(#paint48_linear_902_566)" stroke-opacity="0.16" stroke-width="0.6393" stroke-miterlimit="10"/>
<path d="M-142.117 339.64C42.2948 394.628 139.922 394.289 195.014 379.049C262.595 360.354 276.965 310.493 324.722 309.464C384.045 308.14 386.566 380.028 453.787 391.266C551.056 407.529 629.434 326.371 793.398 291.918C933.454 262.335 975.993 315.722 1134.52 303.814C1318.41 290.102 1347.42 134.533 1511.71 127.716C1695.88 119.994 1753.64 341.638 1948.28 334.542C2122.64 328.185 2201.25 212.187 2325.55 242.681C2391.57 258.876 2466.81 321.609 2519.84 499.709" stroke="url(#paint49_linear_902_566)" stroke-opacity="0.16" stroke-width="0.5902" stroke-miterlimit="10"/>
<path d="M-136.65 335.168C46.4156 394.292 143.132 393.74 197.603 377.363C264.682 357.195 278.599 304.408 325.841 303.537C384.492 302.414 386.974 379.087 453.957 390.897C550.38 407.898 627.401 315.202 791.884 280.449C932.581 250.579 975.813 311.477 1135.17 299.526C1321.16 285.671 1349.98 123.986 1515.48 117.089C1701.54 109.262 1760.18 337.61 1956.99 330.728C2132.01 324.608 2210.64 200.892 2334.11 231.579C2399.88 247.924 2474.2 312.81 2524.82 499.875" stroke="url(#paint50_linear_902_566)" stroke-opacity="0.16" stroke-width="0.541" stroke-miterlimit="10"/>
<path d="M-131.184 330.696C50.5364 393.957 146.338 393.187 200.191 375.677C266.764 354.032 280.232 298.322 326.96 297.61C384.938 296.687 387.382 378.143 454.127 390.528C549.706 408.263 625.367 304.032 790.37 268.98C931.708 238.823 975.632 307.231 1135.82 295.237C1323.91 281.239 1352.54 113.437 1519.24 106.462C1707.2 98.5285 1766.73 333.579 1965.71 326.914C2141.38 321.029 2219.97 189.837 2342.67 220.477C2408.16 237.101 2481.6 304.01 2529.8 500.042" stroke="url(#paint51_linear_902_566)" stroke-opacity="0.16" stroke-width="0.4918" stroke-miterlimit="10"/>
<path d="M-125.717 326.224C54.6572 393.621 149.539 392.631 202.779 373.992C268.84 350.864 281.865 292.237 328.078 291.684C385.384 290.961 387.792 377.197 454.296 390.159C549.033 408.625 623.333 292.863 788.855 257.511C930.834 227.067 975.451 302.986 1136.46 290.949C1326.65 276.808 1355.1 102.89 1523.01 95.8348C1712.85 87.7968 1773.28 329.545 1974.42 323.1C2150.75 317.45 2229.37 178.524 2351.23 209.376C2416.47 226.142 2489 295.212 2534.77 500.209" stroke="url(#paint52_linear_902_566)" stroke-opacity="0.16" stroke-width="0.4426" stroke-miterlimit="10"/>
<path d="M-120.25 321.752C58.778 393.286 152.737 392.072 205.368 372.306C270.911 347.691 283.499 286.151 329.197 285.757C385.831 285.235 388.203 376.246 454.465 389.79C548.362 408.982 621.299 281.693 787.34 246.042C929.96 215.311 975.269 298.741 1137.1 286.66C1329.4 272.376 1357.66 92.3416 1526.78 85.2076C1718.51 77.0646 1779.82 325.509 1983.13 319.286C2160.12 313.868 2238.76 167.211 2359.79 198.274C2424.78 215.182 2496.4 286.413 2539.75 500.375" stroke="url(#paint53_linear_902_566)" stroke-opacity="0.16" stroke-width="0.3934" stroke-miterlimit="10"/>
<path d="M-114.781 317.28C62.9008 392.95 155.931 391.51 207.959 370.621C272.978 344.516 285.135 280.067 330.318 279.831C386.28 279.509 388.619 375.294 454.637 389.422C547.697 409.337 619.267 270.525 785.828 234.574C929.088 203.555 975.091 294.497 1137.75 282.373C1332.15 267.946 1360.22 81.7955 1530.55 74.5825C1724.16 66.3335 1786.37 321.473 1991.84 315.474C2169.49 310.288 2248.16 155.9 2368.35 187.174C2433.09 204.223 2503.79 277.616 2544.73 500.544" stroke="url(#paint54_linear_902_566)" stroke-opacity="0.16" stroke-width="0.3443" stroke-miterlimit="10"/>
<path d="M-109.314 312.808C67.0215 392.615 159.118 390.946 210.547 368.936C275.036 341.336 286.768 273.982 331.437 273.905C386.726 273.784 389.034 374.338 454.807 389.053C547.032 409.687 617.234 259.355 784.314 223.105C928.215 191.799 974.91 290.251 1138.39 278.084C1334.89 263.514 1362.78 71.2466 1534.32 63.9546C1729.82 55.6006 1792.92 317.431 2000.56 311.659C2178.86 306.703 2257.55 144.586 2376.91 176.072C2441.4 193.263 2511.19 268.817 2549.71 500.71" stroke="url(#paint55_linear_902_566)" stroke-opacity="0.16" stroke-width="0.2951" stroke-miterlimit="10"/>
<path d="M-103.848 308.336C71.1423 392.279 162.299 390.38 213.135 367.25C277.087 338.152 288.401 267.896 332.555 267.978C387.172 268.057 389.45 373.377 454.976 388.684C546.368 410.033 615.2 248.186 782.799 211.637C927.341 180.044 974.729 286.007 1139.04 273.797C1337.64 259.084 1365.34 60.7006 1538.08 53.3296C1735.48 44.8706 1799.46 313.389 2009.27 307.847C2188.23 303.12 2266.95 133.275 2385.47 164.972C2449.71 182.305 2518.59 260.02 2554.68 500.878" stroke="url(#paint56_linear_902_566)" stroke-opacity="0.16" stroke-width="0.2459" stroke-miterlimit="10"/>
<path d="M-98.3809 303.863C75.2631 391.943 165.475 389.811 215.724 365.563C279.133 334.964 290.035 261.809 333.674 262.051C387.619 262.33 389.869 372.414 455.145 388.314C545.708 410.374 613.165 237.015 781.283 200.167C926.466 168.287 974.546 281.761 1139.68 269.507C1340.38 254.651 1367.9 50.1525 1541.85 42.7015C1741.13 34.1365 1806 308.995 2017.98 304.031C2197.59 299.239 2276.34 121.96 2394.03 153.868C2458.02 171.342 2525.98 251.219 2559.66 501.043" stroke="url(#paint57_linear_902_566)" stroke-opacity="0.16" stroke-width="0.1967" stroke-miterlimit="10"/>
<path d="M-92.9141 299.392C79.3839 391.608 168.646 389.243 218.312 363.879C281.17 331.777 291.668 255.725 334.792 256.126C388.064 256.606 390.289 371.449 455.314 387.947C545.05 410.715 611.131 225.848 779.768 188.7C925.592 156.533 974.365 277.518 1140.32 265.221C1343.13 250.222 1370.46 39.6055 1545.62 32.0765C1746.78 23.4065 1812.55 305.032 2026.69 300.22C2206.96 295.726 2285.73 110.65 2402.59 142.77C2466.33 160.386 2533.38 242.424 2564.63 501.213" stroke="url(#paint58_linear_902_566)" stroke-opacity="0.16" stroke-width="0.1475" stroke-miterlimit="10"/>
<path d="M-87.4473 294.92C83.5047 391.273 171.811 388.674 220.9 362.194C283.201 328.587 293.301 249.641 335.91 250.2C388.51 250.88 390.712 370.479 455.483 387.579C544.395 411.052 609.097 214.679 778.253 177.232C924.717 144.778 974.184 273.274 1140.97 260.933C1345.87 245.791 1373.02 29.0587 1549.38 21.4497C1752.44 12.6747 1819.1 301.066 2035.41 296.406C2216.33 292.211 2295.13 99.3367 2411.15 131.668C2474.64 149.426 2540.78 233.624 2569.61 501.379" stroke="url(#paint59_linear_902_566)" stroke-opacity="0.16" stroke-width="0.0984" stroke-miterlimit="10"/>
<path d="M-81.9805 290.447C87.6255 390.936 174.919 388.01 223.49 360.507C285.16 325.277 294.936 243.554 337.031 244.272C388.959 245.152 391.162 369.423 455.655 387.208C543.777 411.271 607.064 203.508 776.74 165.761C923.845 133.02 974.005 269.026 1141.61 256.643C1348.62 241.358 1375.58 18.5104 1553.15 10.8224C1758.1 1.94242 1825.65 297.1 2044.12 292.591C2225.71 288.694 2304.52 88.0234 2419.71 120.565C2482.95 138.464 2548.18 224.824 2574.59 501.545" stroke="url(#paint60_linear_902_566)" stroke-opacity="0.16" stroke-width="0.0492" stroke-miterlimit="10"/>
<defs>
<linearGradient id="paint0_linear_902_566" x1="932.984" y1="408.453" x2="932.984" y2="854.472" gradientUnits="userSpaceOnUse">
<stop stop-color="#5C459B"/>
<stop offset="1" stop-color="#C3A952"/>
</linearGradient>
<linearGradient id="paint1_linear_902_566" x1="938.204" y1="408.121" x2="938.204" y2="843.034" gradientUnits="userSpaceOnUse">
<stop stop-color="#5C459B"/>
<stop offset="1" stop-color="#C3A952"/>
</linearGradient>
<linearGradient id="paint2_linear_902_566" x1="943.426" y1="407.789" x2="943.426" y2="831.599" gradientUnits="userSpaceOnUse">
<stop stop-color="#5C459B"/>
<stop offset="1" stop-color="#C3A952"/>
</linearGradient>
<linearGradient id="paint3_linear_902_566" x1="948.648" y1="407.476" x2="948.648" y2="820.166" gradientUnits="userSpaceOnUse">
<stop stop-color="#5C459B"/>
<stop offset="1" stop-color="#C3A952"/>
</linearGradient>
<linearGradient id="paint4_linear_902_566" x1="953.87" y1="407.149" x2="953.87" y2="808.735" gradientUnits="userSpaceOnUse">
<stop stop-color="#5C459B"/>
<stop offset="1" stop-color="#C3A952"/>
</linearGradient>
<linearGradient id="paint5_linear_902_566" x1="959.094" y1="406.822" x2="959.094" y2="797.306" gradientUnits="userSpaceOnUse">
<stop stop-color="#5C459B"/>
<stop offset="1" stop-color="#C3A952"/>
</linearGradient>
<linearGradient id="paint6_linear_902_566" x1="964.315" y1="406.494" x2="964.315" y2="785.88" gradientUnits="userSpaceOnUse">
<stop stop-color="#5C459B"/>
<stop offset="1" stop-color="#C3A952"/>
</linearGradient>
<linearGradient id="paint7_linear_902_566" x1="969.538" y1="406.167" x2="969.538" y2="774.457" gradientUnits="userSpaceOnUse">
<stop stop-color="#5C459B"/>
<stop offset="1" stop-color="#C3A952"/>
</linearGradient>
<linearGradient id="paint8_linear_902_566" x1="974.759" y1="405.838" x2="974.759" y2="763.036" gradientUnits="userSpaceOnUse">
<stop stop-color="#5C459B"/>
<stop offset="1" stop-color="#C3A952"/>
</linearGradient>
<linearGradient id="paint9_linear_902_566" x1="979.981" y1="405.508" x2="979.981" y2="751.618" gradientUnits="userSpaceOnUse">
<stop stop-color="#5C459B"/>
<stop offset="1" stop-color="#C3A952"/>
</linearGradient>
<linearGradient id="paint10_linear_902_566" x1="985.203" y1="405.178" x2="985.203" y2="740.204" gradientUnits="userSpaceOnUse">
<stop stop-color="#5C459B"/>
<stop offset="1" stop-color="#C3A952"/>
</linearGradient>
<linearGradient id="paint11_linear_902_566" x1="990.425" y1="404.847" x2="990.425" y2="728.793" gradientUnits="userSpaceOnUse">
<stop stop-color="#5C459B"/>
<stop offset="1" stop-color="#C3A952"/>
</linearGradient>
<linearGradient id="paint12_linear_902_566" x1="995.646" y1="404.517" x2="995.646" y2="717.388" gradientUnits="userSpaceOnUse">
<stop stop-color="#5C459B"/>
<stop offset="1" stop-color="#C3A952"/>
</linearGradient>
<linearGradient id="paint13_linear_902_566" x1="1000.87" y1="404.185" x2="1000.87" y2="705.986" gradientUnits="userSpaceOnUse">
<stop stop-color="#5C459B"/>
<stop offset="1" stop-color="#C3A952"/>
</linearGradient>
<linearGradient id="paint14_linear_902_566" x1="1006.09" y1="403.85" x2="1006.09" y2="694.588" gradientUnits="userSpaceOnUse">
<stop stop-color="#5C459B"/>
<stop offset="1" stop-color="#C3A952"/>
</linearGradient>
<linearGradient id="paint15_linear_902_566" x1="1011.31" y1="403.517" x2="1011.31" y2="683.196" gradientUnits="userSpaceOnUse">
<stop stop-color="#5C459B"/>
<stop offset="1" stop-color="#C3A952"/>
</linearGradient>
<linearGradient id="paint16_linear_902_566" x1="1016.54" y1="403.18" x2="1016.54" y2="671.809" gradientUnits="userSpaceOnUse">
<stop stop-color="#5C459B"/>
<stop offset="1" stop-color="#C3A952"/>
</linearGradient>
<linearGradient id="paint17_linear_902_566" x1="1021.76" y1="402.844" x2="1021.76" y2="660.431" gradientUnits="userSpaceOnUse">
<stop stop-color="#5C459B"/>
<stop offset="1" stop-color="#C3A952"/>
</linearGradient>
<linearGradient id="paint18_linear_902_566" x1="1026.98" y1="402.506" x2="1026.98" y2="649.058" gradientUnits="userSpaceOnUse">
<stop stop-color="#5C459B"/>
<stop offset="1" stop-color="#C3A952"/>
</linearGradient>
<linearGradient id="paint19_linear_902_566" x1="1032.2" y1="402.167" x2="1032.2" y2="637.694" gradientUnits="userSpaceOnUse">
<stop stop-color="#5C459B"/>
<stop offset="1" stop-color="#C3A952"/>
</linearGradient>
<linearGradient id="paint20_linear_902_566" x1="1037.42" y1="401.826" x2="1037.42" y2="626.34" gradientUnits="userSpaceOnUse">
<stop stop-color="#5C459B"/>
<stop offset="1" stop-color="#C3A952"/>
</linearGradient>
<linearGradient id="paint21_linear_902_566" x1="1042.64" y1="401.483" x2="1042.64" y2="614.996" gradientUnits="userSpaceOnUse">
<stop stop-color="#5C459B"/>
<stop offset="1" stop-color="#C3A952"/>
</linearGradient>
<linearGradient id="paint22_linear_902_566" x1="1047.87" y1="401.139" x2="1047.87" y2="603.664" gradientUnits="userSpaceOnUse">
<stop stop-color="#5C459B"/>
<stop offset="1" stop-color="#C3A952"/>
</linearGradient>
<linearGradient id="paint23_linear_902_566" x1="1053.09" y1="400.793" x2="1053.09" y2="592.347" gradientUnits="userSpaceOnUse">
<stop stop-color="#5C459B"/>
<stop offset="1" stop-color="#C3A952"/>
</linearGradient>
<linearGradient id="paint24_linear_902_566" x1="1058.31" y1="393.038" x2="1058.31" y2="581.043" gradientUnits="userSpaceOnUse">
<stop stop-color="#5C459B"/>
<stop offset="1" stop-color="#C3A952"/>
</linearGradient>
<linearGradient id="paint25_linear_902_566" x1="1063.53" y1="382.434" x2="1063.53" y2="569.758" gradientUnits="userSpaceOnUse">
<stop stop-color="#5C459B"/>
<stop offset="1" stop-color="#C3A952"/>
</linearGradient>
<linearGradient id="paint26_linear_902_566" x1="1068.76" y1="371.828" x2="1068.76" y2="558.495" gradientUnits="userSpaceOnUse">
<stop stop-color="#5C459B"/>
<stop offset="1" stop-color="#C3A952"/>
</linearGradient>
<linearGradient id="paint27_linear_902_566" x1="1073.98" y1="361.217" x2="1073.98" y2="547.208" gradientUnits="userSpaceOnUse">
<stop stop-color="#5C459B"/>
<stop offset="1" stop-color="#C3A952"/>
</linearGradient>
<linearGradient id="paint28_linear_902_566" x1="1079.2" y1="350.604" x2="1079.2" y2="535.992" gradientUnits="userSpaceOnUse">
<stop stop-color="#5C459B"/>
<stop offset="1" stop-color="#C3A952"/>
</linearGradient>
<linearGradient id="paint29_linear_902_566" x1="1084.42" y1="339.987" x2="1084.42" y2="524.809" gradientUnits="userSpaceOnUse">
<stop stop-color="#5C459B"/>
<stop offset="1" stop-color="#C3A952"/>
</linearGradient>
<linearGradient id="paint30_linear_902_566" x1="1089.64" y1="329.371" x2="1089.64" y2="513.668" gradientUnits="userSpaceOnUse">
<stop stop-color="#5C459B"/>
<stop offset="1" stop-color="#C3A952"/>
</linearGradient>
<linearGradient id="paint31_linear_902_566" x1="1094.87" y1="318.751" x2="1094.87" y2="502.669" gradientUnits="userSpaceOnUse">
<stop stop-color="#5C459B"/>
<stop offset="1" stop-color="#C3A952"/>
</linearGradient>
<linearGradient id="paint32_linear_902_566" x1="1100.09" y1="308.131" x2="1100.09" y2="496.868" gradientUnits="userSpaceOnUse">
<stop stop-color="#5C459B"/>
<stop offset="1" stop-color="#C3A952"/>
</linearGradient>
<linearGradient id="paint33_linear_902_566" x1="1105.31" y1="297.511" x2="1105.31" y2="497.036" gradientUnits="userSpaceOnUse">
<stop stop-color="#5C459B"/>
<stop offset="1" stop-color="#C3A952"/>
</linearGradient>
<linearGradient id="paint34_linear_902_566" x1="1110.53" y1="286.889" x2="1110.53" y2="497.203" gradientUnits="userSpaceOnUse">
<stop stop-color="#5C459B"/>
<stop offset="1" stop-color="#C3A952"/>
</linearGradient>
<linearGradient id="paint35_linear_902_566" x1="1115.75" y1="276.267" x2="1115.75" y2="497.37" gradientUnits="userSpaceOnUse">
<stop stop-color="#5C459B"/>
<stop offset="1" stop-color="#C3A952"/>
</linearGradient>
<linearGradient id="paint36_linear_902_566" x1="1120.98" y1="265.645" x2="1120.98" y2="497.538" gradientUnits="userSpaceOnUse">
<stop stop-color="#5C459B"/>
<stop offset="1" stop-color="#C3A952"/>
</linearGradient>
<linearGradient id="paint37_linear_902_566" x1="1126.2" y1="255.02" x2="1126.2" y2="497.704" gradientUnits="userSpaceOnUse">
<stop stop-color="#5C459B"/>
<stop offset="1" stop-color="#C3A952"/>
</linearGradient>
<linearGradient id="paint38_linear_902_566" x1="1131.42" y1="244.397" x2="1131.42" y2="497.872" gradientUnits="userSpaceOnUse">
<stop stop-color="#5C459B"/>
<stop offset="1" stop-color="#C3A952"/>
</linearGradient>
<linearGradient id="paint39_linear_902_566" x1="1136.64" y1="233.772" x2="1136.64" y2="498.037" gradientUnits="userSpaceOnUse">
<stop stop-color="#5C459B"/>
<stop offset="1" stop-color="#C3A952"/>
</linearGradient>
<linearGradient id="paint40_linear_902_566" x1="1141.86" y1="223.148" x2="1141.86" y2="498.205" gradientUnits="userSpaceOnUse">
<stop stop-color="#5C459B"/>
<stop offset="1" stop-color="#C3A952"/>
</linearGradient>
<linearGradient id="paint41_linear_902_566" x1="1147.08" y1="212.523" x2="1147.08" y2="498.371" gradientUnits="userSpaceOnUse">
<stop stop-color="#5C459B"/>
<stop offset="1" stop-color="#C3A952"/>
</linearGradient>
<linearGradient id="paint42_linear_902_566" x1="1152.31" y1="201.898" x2="1152.31" y2="498.539" gradientUnits="userSpaceOnUse">
<stop stop-color="#5C459B"/>
<stop offset="1" stop-color="#C3A952"/>
</linearGradient>
<linearGradient id="paint43_linear_902_566" x1="1157.53" y1="191.273" x2="1157.53" y2="498.707" gradientUnits="userSpaceOnUse">
<stop stop-color="#5C459B"/>
<stop offset="1" stop-color="#C3A952"/>
</linearGradient>
<linearGradient id="paint44_linear_902_566" x1="1162.75" y1="180.648" x2="1162.75" y2="498.874" gradientUnits="userSpaceOnUse">
<stop stop-color="#5C459B"/>
<stop offset="1" stop-color="#C3A952"/>
</linearGradient>
<linearGradient id="paint45_linear_902_566" x1="1167.97" y1="170.023" x2="1167.97" y2="499.042" gradientUnits="userSpaceOnUse">
<stop stop-color="#5C459B"/>
<stop offset="1" stop-color="#C3A952"/>
</linearGradient>
<linearGradient id="paint46_linear_902_566" x1="1173.2" y1="159.397" x2="1173.2" y2="499.209" gradientUnits="userSpaceOnUse">
<stop stop-color="#5C459B"/>
<stop offset="1" stop-color="#C3A952"/>
</linearGradient>
<linearGradient id="paint47_linear_902_566" x1="1178.42" y1="148.771" x2="1178.42" y2="499.375" gradientUnits="userSpaceOnUse">
<stop stop-color="#5C459B"/>
<stop offset="1" stop-color="#C3A952"/>
</linearGradient>
<linearGradient id="paint48_linear_902_566" x1="1183.64" y1="138.145" x2="1183.64" y2="499.542" gradientUnits="userSpaceOnUse">
<stop stop-color="#5C459B"/>
<stop offset="1" stop-color="#C3A952"/>
</linearGradient>
<linearGradient id="paint49_linear_902_566" x1="1188.86" y1="127.519" x2="1188.86" y2="499.709" gradientUnits="userSpaceOnUse">
<stop stop-color="#5C459B"/>
<stop offset="1" stop-color="#C3A952"/>
</linearGradient>
<linearGradient id="paint50_linear_902_566" x1="1194.08" y1="116.892" x2="1194.08" y2="499.875" gradientUnits="userSpaceOnUse">
<stop stop-color="#5C459B"/>
<stop offset="1" stop-color="#C3A952"/>
</linearGradient>
<linearGradient id="paint51_linear_902_566" x1="1199.31" y1="106.265" x2="1199.31" y2="500.042" gradientUnits="userSpaceOnUse">
<stop stop-color="#5C459B"/>
<stop offset="1" stop-color="#C3A952"/>
</linearGradient>
<linearGradient id="paint52_linear_902_566" x1="1204.53" y1="95.6387" x2="1204.53" y2="500.209" gradientUnits="userSpaceOnUse">
<stop stop-color="#5C459B"/>
<stop offset="1" stop-color="#C3A952"/>
</linearGradient>
<linearGradient id="paint53_linear_902_566" x1="1209.75" y1="85.0117" x2="1209.75" y2="500.375" gradientUnits="userSpaceOnUse">
<stop stop-color="#5C459B"/>
<stop offset="1" stop-color="#C3A952"/>
</linearGradient>
<linearGradient id="paint54_linear_902_566" x1="1214.97" y1="74.3867" x2="1214.97" y2="500.544" gradientUnits="userSpaceOnUse">
<stop stop-color="#5C459B"/>
<stop offset="1" stop-color="#C3A952"/>
</linearGradient>
<linearGradient id="paint55_linear_902_566" x1="1220.2" y1="63.7588" x2="1220.2" y2="500.71" gradientUnits="userSpaceOnUse">
<stop stop-color="#5C459B"/>
<stop offset="1" stop-color="#C3A952"/>
</linearGradient>
<linearGradient id="paint56_linear_902_566" x1="1225.42" y1="53.1338" x2="1225.42" y2="500.878" gradientUnits="userSpaceOnUse">
<stop stop-color="#5C459B"/>
<stop offset="1" stop-color="#C3A952"/>
</linearGradient>
<linearGradient id="paint57_linear_902_566" x1="1230.64" y1="42.5054" x2="1230.64" y2="501.043" gradientUnits="userSpaceOnUse">
<stop stop-color="#5C459B"/>
<stop offset="1" stop-color="#C3A952"/>
</linearGradient>
<linearGradient id="paint58_linear_902_566" x1="1235.86" y1="31.8804" x2="1235.86" y2="501.213" gradientUnits="userSpaceOnUse">
<stop stop-color="#5C459B"/>
<stop offset="1" stop-color="#C3A952"/>
</linearGradient>
<linearGradient id="paint59_linear_902_566" x1="1241.08" y1="21.2534" x2="1241.08" y2="501.379" gradientUnits="userSpaceOnUse">
<stop stop-color="#5C459B"/>
<stop offset="1" stop-color="#C3A952"/>
</linearGradient>
<linearGradient id="paint60_linear_902_566" x1="1246.3" y1="10.626" x2="1246.3" y2="501.545" gradientUnits="userSpaceOnUse">
<stop stop-color="#5C459B"/>
<stop offset="1" stop-color="#C3A952"/>
</linearGradient>
</defs>
</svg>
